<?xml version="1.0" encoding="utf-8"?>
<!-- Generator: Adobe Illustrator 18.0.0, SVG Export Plug-In . SVG Version: 6.00 Build 0)  -->
<!DOCTYPE svg PUBLIC "-//W3C//DTD SVG 1.1//EN" "http://www.w3.org/Graphics/SVG/1.1/DTD/svg11.dtd">
<svg version="1.1" id="Layer_1" xmlns="http://www.w3.org/2000/svg" xmlns:xlink="http://www.w3.org/1999/xlink" x="0px" y="0px"
	 width="132.101px" height="53.016px" viewBox="0 0 132.101 53.016" style="enable-background:new 0 0 132.101 53.016;"
	 xml:space="preserve">
<style type="text/css">
	.st0{fill:#D31245;}
</style>
<g>
	<g>
		<path class="st0" d="M32.81,30.854c-0.573-1.118-2.593-0.245-3.613-1.185c-0.283-0.26-0.879-0.796-1.183-1.726
			c-0.29-0.883-0.731-1.585-1.471-2.158c-1.313-1.02-4.418-2.584-4.206-4.674c0.098-0.937,1.229-1.139,1.694-1.821
			c0.28-0.407,0.317-0.945,0.651-1.319c0.37-0.417-0.152-0.428-0.516-0.445c-0.782-0.032-1.366,0.819-2.016,1.164
			c-1.064,0.567-2.021,1.361-3.219,1.624c-0.351,0.076-2.149,0.633-0.976,0.925c0.8,0.199,1.695,0.146,2.358,0.717
			c0.852,0.73,1.544,1.668,2.401,2.401c0.435,0.377,0.858,0.729,1.211,1.191c0.404,0.524,0.352,1.123,0.654,1.677
			c0.292,0.528,0.865,0.043,1.224,0.341c1.169,0.971-0.46,1.448-0.878,1.899c-0.55,0.594-0.655,0.982-1.665,1.391
			c-0.444,0.18-3.326,0.526-3.678,0.795c-0.352,0.269-0.169,0.348-0.076,0.45c0.092,0.102,0.591,0.263,0.808,0.284
			c1.21,0.114,4.94,0.819,5.703-0.136c0.521-0.654,1.297-0.726,2.156-0.491c0.601,0.163,1.801,0.041,2.838-0.382
			C31.608,31.127,33.273,31.099,32.81,30.854z M32.122,35.515c-0.004,0.002-0.057,0.034-0.124,0.07
			c-0.07,0.036-0.121,0.066-0.125,0.072c0.004-0.004,0.01-0.008,0.004-0.006c-1.158,0.643-1.749,1.644-1.631,3.271
			c0.162,2.258,1.819,13.663,1.819,13.663l3.174-1.006c0,0-0.293-1.85-0.657-4.115c1.082-0.321,2.169-0.772,3.243-1.365
			c1.061-0.591,2.022-1.273,2.863-2.018c1.73,1.51,3.143,2.745,3.143,2.745l2.539-2.156c0,0-8.788-7.462-10.612-8.797
			C34.443,34.912,33.287,34.878,32.122,35.515z M36.38,43.517c-0.823,0.447-1.557,0.721-2.287,0.88
			c-0.397-2.509-0.755-4.78-0.802-5.061c-0.098-0.67-0.048-0.937,0.19-1.073c0.238-0.134,0.494-0.03,1.005,0.41
			c0.219,0.187,1.951,1.696,3.864,3.366C37.826,42.576,37.204,43.053,36.38,43.517z M23.013,53.016h3.276V36.76h-3.276V53.016z
			 M17.324,35.657c-0.007-0.008-0.059-0.035-0.126-0.072c-0.067-0.037-0.117-0.068-0.124-0.07c0.005,0.002,0.007,0.002,0.007,0.002
			c-1.162-0.643-2.319-0.611-3.64,0.351c-1.829,1.333-10.625,8.781-10.625,8.781l2.536,2.159c0,0,1.413-1.23,3.143-2.737
			c0.845,0.745,1.804,1.43,2.874,2.023c1.065,0.589,2.155,1.043,3.231,1.361c-0.366,2.269-0.662,4.121-0.662,4.121l3.169,1.009
			c0,0,1.676-11.404,1.839-13.66C19.064,37.301,18.481,36.3,17.324,35.657z M15.898,39.334c-0.04,0.283-0.406,2.55-0.808,5.059
			c-0.736-0.161-1.471-0.439-2.297-0.89c-0.816-0.46-1.436-0.937-1.957-1.472c1.918-1.668,3.652-3.176,3.867-3.361
			c0.516-0.44,0.769-0.54,1.011-0.407C15.952,38.394,15.998,38.663,15.898,39.334z M5.839,39.315
			c-1.801-2.438-3.127-5.237-3.849-8.266c0.207,0.044,0.456,0.109,0.877,0.247c1.377,0.448,3.968,1.3,5.84,0.432
			c1.188-0.552,3.253-1.002,4.048-1.321c0.75-0.303,2.34,0.393,0.465-0.838c-0.003-0.002-0.007-0.005-0.007-0.005
			c-0.025-0.015-0.054-0.033-0.098-0.049c-0.06-0.024-0.123-0.04-0.189-0.056c-0.187-0.05-1.687,0.259-2.019,0.208
			c-0.105-0.027-0.205-0.064-0.3-0.116c-0.818-0.445,2.659-3.156,2.773-3.841c-0.997,0.105-1.822,0.739-2.716,1.132
			c-1.05,0.464-2.197,0.474-3.324,0.479c-1.285,0.003-2.286,1.003-3.416,1.464c-0.591,0.239-1.561,0.467-2.214,0.898
			c-0.048-0.278-0.091-0.56-0.13-0.843c0.02-0.49,0.075-1.076,0.192-1.748c0.258-1.475,0.856-2.611,2.182-4.38
			c0,0,1.294-1.557,2.048-2.057c0.292-0.195,0.613-0.486,0.922-0.289c0.327,0.208-0.092,1.481,0.789,1.696
			c0.533,0.129,0.064,1.009,0.247,1.523c0.195,0.549-2.195,2.635-1.564,2.892c0.352,0.145,1.936-0.657,2.776-0.925
			c0.744-0.237,1.53-0.252,2.344-1.016c0.835-0.78,1.669-1.214,1.669-1.214c0.677-0.569,1.34-1.159,2.012-1.739
			c0.654-0.568,1.28-1.16,1.913-1.756c0.398-0.376,2.194-1.363,2.353-1.708c0.835-1.809,3.016-2.859,4.638-4.009
			c0.298-0.211,0.621-0.648,0.803-0.899c0.184-0.256,0.378-0.628,0.484-0.75c0.21-0.238,0.26-0.416,0.491-0.525
			c0.096-0.045,0.458-0.048,0.618,0.125c0.527,0.564,1.246,1.046,1.274,1.638c0.042,0.912,2.59,1.706,3.169,2.415
			c0.238,0.293,0.38,0.567,0.479,0.843c-0.447-0.185-0.882-0.394-1.27-0.678c-0.26-0.185-0.858-0.136-1.167-0.193
			c-0.876-0.165-0.674,0.259-0.186,0.76c0.5,0.519,1.075,0.97,1.534,1.533c0.526,0.649,0.479,1.177,0.619,1.95
			c0.154,0.834,0.647,1.551,1.051,2.279c0.413,0.739,0.383,1.526,0.612,2.312c0.243,0.791,0.917,1.456,1.476,2.033
			c0.478,0.504,1.562,1.733,2.157,1.468c0.629-0.282,1.41,0.485,1.646,0.277c0.236-0.207-0.631-1.217-0.298-1.53
			c0.334-0.31,1.782,0.171,2.076,1.104c0.338,1.073,0.306,1.17,0.25,1.951c-0.036,0.504-0.238,0.932-0.586,1.285
			c-0.427,0.437-1.42,1.15-1.225,1.877c0.913-0.494,1.905-0.544,2.922-0.504c0.992,0.034,1.718-0.376,2.38-1.087
			c0.293-0.311,1.133-1.296,1.612-0.804c0.289,0.299-0.562,1.509,0.368,1.258c0.621-0.171,1.177-0.646,1.738-0.955
			c0.152-0.084,0.287-0.17,0.407-0.26c-0.732,3.081-2.088,5.926-3.936,8.395l0.678,0.557c3.283-4.201,5.244-9.483,5.244-15.229
			C49.522,11.085,38.435,0,24.76,0C11.086,0,0,11.085,0,24.76c0,5.694,1.927,10.934,5.157,15.117L5.839,39.315z M24.76,2.737
			c12.276,0,22.337,9.316,23.309,21.16c-0.38,0.491-0.919,0.762-1.512,0.888c-2.082,0.44-2.722-1.361-4.452-2.5
			c-1.736-1.144-3.331-1.585-4.939-3.197c-0.646-0.646-0.811-1.744-1.452-2.42c-0.857-0.905-1.379-1.161-2.541-1.612
			c-2.038-0.789-3.788-1.377-5.482-2.777c-0.286-0.24-0.961-0.554-1.589-0.667c-0.268-0.048-0.39-0.01-0.481,0.1
			c-0.25,0.316-0.482,0.709-0.705,1.08c-0.063,0.105-0.272,0.4-0.443,0.557c-0.328,0.3-0.737,0.67-1.05,0.861
			c-1.701,1.031-3.95,1.922-4.918,3.666c-0.183,0.329-2.043,1.185-2.472,1.531c-0.676,0.549-1.339,1.095-2.033,1.614
			c-0.648,0.481-1.55,1.233-2.225,1.735c-0.359-0.132-0.723-0.252-1.062-0.319c-0.801-0.158-1.472-0.763-2.156-1.191
			c-0.884-0.551-0.816-0.615-1.093-0.772c-0.243-0.138-0.364-0.212-0.458-0.266c-0.655-0.379-0.692,0.005-1.619,0.574
			c-0.777,0.48-1.67,1.271-2.334,1.898c-0.531,0.495-1.075,1.028-1.626,1.578C2.221,12.24,12.361,2.737,24.76,2.737z"/>
	</g>
	<g>
		<g>
			<path class="st0" d="M62.062,23.731c-0.129,0-0.244-0.048-0.353-0.148c-0.105-0.095-0.157-0.247-0.157-0.453v-6.289
				c0-0.206,0.052-0.361,0.158-0.459c0.108-0.101,0.223-0.151,0.352-0.151c0.13,0,0.244,0.049,0.352,0.151
				c0.104,0.098,0.158,0.253,0.158,0.459v6.289c0,0.206-0.053,0.358-0.157,0.453C62.306,23.683,62.191,23.731,62.062,23.731z"/>
			<path class="st0" d="M65.628,23.731c-0.57,0-1.05-0.191-1.424-0.568c-0.374-0.378-0.565-0.973-0.565-1.773v-1.517
				c0-0.261,0.045-0.47,0.136-0.619c0.096-0.156,0.203-0.287,0.322-0.39c0.126-0.11,0.244-0.219,0.35-0.325
				c0.119-0.119,0.185-0.265,0.196-0.436c0.011-0.093-0.002-0.189-0.039-0.282c-0.038-0.099-0.119-0.155-0.225-0.155
				c-0.021,0-0.041,0.003-0.064,0.006l-0.381,0.036c-0.026,0.002-0.049,0.004-0.071,0.004c-0.131,0-0.221-0.047-0.287-0.148
				c-0.085-0.131-0.128-0.294-0.128-0.483c0-0.168,0.043-0.322,0.13-0.458c0.079-0.128,0.201-0.195,0.372-0.205l0.807-0.018
				c0.249,0,0.46,0.109,0.644,0.335c0.196,0.239,0.3,0.545,0.309,0.91c0.009,0.377-0.036,0.665-0.133,0.855
				c-0.101,0.197-0.216,0.36-0.344,0.486c-0.139,0.136-0.267,0.269-0.379,0.397c-0.128,0.143-0.193,0.344-0.193,0.598v1.48
				c0,0.378,0.091,0.671,0.27,0.874c0.182,0.207,0.417,0.311,0.698,0.311c0.317,0,0.567-0.105,0.741-0.312
				c0.171-0.203,0.258-0.496,0.258-0.873V16.93c0-0.206,0.052-0.358,0.157-0.453c0.109-0.099,0.224-0.148,0.353-0.148
				c0.129,0,0.244,0.049,0.353,0.148c0.104,0.095,0.157,0.247,0.157,0.453v4.46c0,0.8-0.187,1.395-0.558,1.773
				C66.719,23.54,66.228,23.731,65.628,23.731z"/>
			<path class="st0" d="M66.281,15.425c-0.173,0-0.296-0.054-0.379-0.166c-0.087-0.118-0.132-0.267-0.132-0.442v-0.489h-0.32
				c-0.17,0-0.294-0.054-0.377-0.166c-0.089-0.117-0.133-0.267-0.133-0.443c0-0.156,0.044-0.3,0.135-0.439
				c0.083-0.127,0.205-0.189,0.375-0.189h0.845c0.21,0,0.361,0.057,0.463,0.172c0.104,0.117,0.157,0.284,0.157,0.491v0.435h1.34
				c0.169,0,0.292,0.062,0.375,0.189c0.09,0.136,0.135,0.283,0.135,0.439c0,0.175-0.044,0.324-0.133,0.442
				c-0.082,0.112-0.206,0.166-0.377,0.166H66.281z"/>
			<path class="st0" d="M71.136,23.731c-0.128,0-0.248-0.052-0.36-0.156c-0.11-0.101-0.165-0.263-0.165-0.481V18.83
				c0-0.344-0.09-0.643-0.265-0.889c-0.181-0.255-0.418-0.385-0.704-0.385c-0.143,0-0.256,0.016-0.342,0.052
				c-0.082,0.032-0.147,0.064-0.199,0.095c-0.111,0.07-0.212,0.106-0.301,0.106c-0.056,0-0.106-0.013-0.155-0.04
				c-0.135-0.076-0.228-0.186-0.285-0.334c-0.051-0.143-0.06-0.3-0.025-0.463c0.034-0.16,0.131-0.293,0.292-0.406
				c0.086-0.055,0.214-0.12,0.376-0.193c0.156-0.069,0.37-0.104,0.639-0.104c0.282,0,0.547,0.058,0.789,0.174
				c0.242,0.116,0.452,0.282,0.626,0.498c0.175,0.217,0.314,0.479,0.415,0.78c0.101,0.302,0.153,0.646,0.153,1.021v4.353
				c0,0.22-0.051,0.382-0.153,0.483C71.369,23.68,71.259,23.731,71.136,23.731z"/>
			<path class="st0" d="M73.536,23.552c-0.232,0-0.4-0.07-0.515-0.213c-0.118-0.147-0.178-0.346-0.178-0.591v-7.299
				c0-0.264,0.045-0.48,0.133-0.641c0.092-0.172,0.192-0.331,0.299-0.471c0.11-0.147,0.215-0.296,0.309-0.442
				c0.104-0.159,0.156-0.353,0.156-0.577c0-0.242-0.079-0.448-0.24-0.61c-0.159-0.162-0.362-0.245-0.604-0.245
				c-0.23,0-0.432,0.074-0.596,0.223c-0.172,0.151-0.252,0.329-0.241,0.529l0.013,0.252l0.144-0.207
				c0.096-0.137,0.196-0.208,0.3-0.212l0.022-0.001c0.103,0,0.196,0.036,0.284,0.109c0.096,0.081,0.16,0.192,0.196,0.338
				c0.036,0.144,0.014,0.295-0.069,0.461c-0.069,0.128-0.169,0.24-0.296,0.331c-0.124,0.086-0.277,0.131-0.457,0.131
				c-0.295,0-0.533-0.115-0.727-0.353c-0.194-0.238-0.293-0.525-0.293-0.854c0-0.244,0.045-0.471,0.135-0.679
				c0.09-0.209,0.215-0.394,0.37-0.549c0.156-0.154,0.341-0.276,0.549-0.366c0.207-0.087,0.436-0.131,0.68-0.131
				c0.5,0,0.922,0.157,1.26,0.467c0.334,0.308,0.503,0.742,0.503,1.293c0,0.24-0.04,0.439-0.118,0.588
				c-0.084,0.164-0.176,0.327-0.274,0.486c-0.099,0.164-0.194,0.342-0.281,0.531c-0.091,0.194-0.136,0.447-0.136,0.75v6.717h0.459
				c0.172,0,0.296,0.054,0.378,0.165c0.088,0.118,0.132,0.267,0.132,0.443c0,0.154-0.045,0.302-0.134,0.438
				c-0.084,0.127-0.207,0.189-0.376,0.189H73.536z"/>
			<path class="st0" d="M76.914,23.552c-0.287,0-0.445-0.155-0.497-0.489l-0.338-2.527h-0.2c-0.17,0-0.294-0.056-0.377-0.172
				c-0.09-0.126-0.133-0.269-0.133-0.436c0-0.151,0.044-0.29,0.134-0.424c0.084-0.125,0.207-0.186,0.376-0.186h0.597
				c0.288,0,0.445,0.153,0.498,0.48l0.337,2.537h0.134c0.19,0,0.373-0.072,0.543-0.212c0.165-0.135,0.306-0.318,0.42-0.545
				c0.111-0.222,0.201-0.487,0.266-0.788c0.065-0.299,0.097-0.613,0.097-0.933c0-0.319-0.03-0.625-0.09-0.909
				c-0.059-0.286-0.149-0.545-0.266-0.772c-0.12-0.231-0.271-0.418-0.45-0.559c-0.183-0.144-0.396-0.224-0.632-0.237
				c-0.039-0.003-0.079-0.005-0.117-0.005c-0.291,0-0.544,0.085-0.751,0.251c-0.232,0.186-0.385,0.393-0.458,0.616
				c-0.062,0.187-0.157,0.321-0.284,0.399c-0.081,0.05-0.161,0.074-0.24,0.074c-0.041,0-0.083-0.007-0.125-0.02
				c-0.12-0.04-0.219-0.124-0.299-0.253c-0.077-0.126-0.096-0.288-0.051-0.484c0.059-0.206,0.158-0.418,0.291-0.624
				c0.131-0.204,0.299-0.383,0.5-0.536c0.203-0.152,0.436-0.277,0.692-0.369c0.254-0.095,0.536-0.143,0.836-0.143
				c0.337,0,0.659,0.069,0.959,0.206c0.299,0.135,0.565,0.349,0.787,0.635c0.225,0.287,0.408,0.662,0.543,1.113
				c0.135,0.454,0.204,0.998,0.204,1.617c0,0.583-0.071,1.112-0.211,1.572c-0.14,0.46-0.325,0.851-0.552,1.165
				c-0.224,0.312-0.481,0.554-0.763,0.716c-0.278,0.161-0.564,0.243-0.849,0.243H76.914z"/>
			<path class="st0" d="M81.354,23.552c-0.207,0-0.37-0.058-0.498-0.177c-0.126-0.119-0.187-0.283-0.187-0.503v-5.226h-0.16
				c-0.172,0-0.296-0.055-0.379-0.165c-0.087-0.118-0.132-0.264-0.132-0.434c0-0.155,0.045-0.302,0.135-0.438
				c0.083-0.127,0.205-0.189,0.375-0.189h0.685c0.147,0,0.262,0.048,0.356,0.146c0.092,0.099,0.14,0.255,0.14,0.464v5.421h0.67
				c0.475,0,0.838-0.175,1.084-0.522c0.237-0.339,0.359-0.783,0.359-1.322c0-0.301-0.048-0.579-0.141-0.825
				c-0.094-0.249-0.223-0.454-0.381-0.612c-0.202-0.181-0.361-0.282-0.487-0.309c-0.106-0.021-0.202-0.047-0.29-0.077
				c-0.082-0.021-0.141-0.069-0.19-0.149c-0.052-0.087-0.078-0.192-0.078-0.313c0-0.153,0.032-0.273,0.095-0.358
				c0.064-0.086,0.134-0.139,0.215-0.165c0.143-0.023,0.258-0.063,0.34-0.119c0.072-0.048,0.148-0.102,0.226-0.163
				c0.174-0.161,0.32-0.357,0.443-0.591c0.116-0.219,0.235-0.399,0.357-0.536c0.102-0.126,0.203-0.185,0.31-0.185
				c0.022,0,0.043,0.002,0.065,0.007c0.149,0.032,0.267,0.102,0.361,0.213c0.099,0.116,0.147,0.254,0.147,0.424
				c0,0.173-0.067,0.365-0.198,0.57c-0.077,0.128-0.162,0.244-0.258,0.349c-0.096,0.107-0.192,0.207-0.283,0.294
				c-0.101,0.091-0.203,0.172-0.303,0.242l-0.106,0.073l0.108,0.07c0.07,0.047,0.17,0.122,0.295,0.224
				c0.122,0.097,0.243,0.233,0.362,0.405c0.118,0.171,0.226,0.384,0.317,0.632c0.091,0.245,0.138,0.529,0.138,0.845
				c0,0.535-0.066,1.001-0.196,1.386c-0.13,0.383-0.301,0.695-0.51,0.928c-0.209,0.234-0.452,0.407-0.722,0.517
				c-0.273,0.112-0.561,0.168-0.859,0.168H81.354z"/>
			<path class="st0" d="M80.659,15.425c-0.172,0-0.295-0.054-0.378-0.166c-0.089-0.118-0.133-0.267-0.133-0.442
				c0-0.156,0.045-0.303,0.136-0.439c0.082-0.127,0.206-0.189,0.375-0.189h2.819V13.7c0-0.206,0.052-0.36,0.158-0.458
				c0.108-0.102,0.222-0.152,0.351-0.152c0.125,0,0.239,0.051,0.35,0.153c0.107,0.098,0.162,0.251,0.162,0.457v1.116
				c0,0.175-0.044,0.324-0.133,0.443c-0.082,0.111-0.206,0.165-0.378,0.165H80.659z"/>
			<path class="st0" d="M87.671,23.731c-0.293,0-0.569-0.057-0.821-0.171c-0.253-0.115-0.479-0.267-0.67-0.455
				c-0.191-0.19-0.349-0.407-0.467-0.647c-0.119-0.239-0.194-0.484-0.221-0.729c-0.026-0.201-0.006-0.361,0.061-0.478
				c0.069-0.118,0.159-0.201,0.274-0.254c0.051-0.019,0.108-0.03,0.162-0.03c0.078,0,0.153,0.021,0.23,0.062
				c0.128,0.07,0.215,0.227,0.258,0.466c0.047,0.26,0.181,0.501,0.396,0.715c0.219,0.218,0.487,0.328,0.797,0.328
				c0.266,0,0.495-0.077,0.681-0.229c0.179-0.146,0.328-0.345,0.443-0.588c0.112-0.237,0.194-0.512,0.244-0.817
				c0.049-0.302,0.074-0.612,0.074-0.924c0-0.318-0.025-0.629-0.074-0.924c-0.05-0.299-0.132-0.571-0.244-0.809
				c-0.115-0.243-0.264-0.44-0.443-0.587c-0.184-0.153-0.414-0.229-0.681-0.229c-0.309,0-0.578,0.111-0.797,0.328
				c-0.216,0.214-0.349,0.452-0.396,0.707c-0.043,0.266-0.141,0.433-0.291,0.498c-0.069,0.029-0.136,0.044-0.2,0.044
				c-0.077,0-0.15-0.021-0.223-0.066c-0.1-0.053-0.17-0.135-0.222-0.25c-0.052-0.119-0.069-0.272-0.051-0.453
				c0.028-0.243,0.102-0.489,0.221-0.728c0.119-0.24,0.276-0.457,0.467-0.645c0.192-0.189,0.418-0.343,0.671-0.461
				c0.251-0.116,0.527-0.175,0.82-0.175c0.4,0,0.758,0.095,1.066,0.282c0.31,0.189,0.574,0.454,0.784,0.788
				c0.212,0.338,0.376,0.74,0.487,1.197c0.112,0.458,0.169,0.956,0.169,1.483c0,0.532-0.057,1.033-0.169,1.491
				c-0.111,0.456-0.275,0.858-0.487,1.196c-0.21,0.334-0.474,0.598-0.783,0.783C88.428,23.637,88.07,23.731,87.671,23.731z"/>
			<path class="st0" d="M86.267,15.425c-0.17,0-0.294-0.054-0.377-0.166c-0.089-0.119-0.133-0.267-0.133-0.442
				c0-0.155,0.045-0.302,0.135-0.439c0.084-0.127,0.206-0.189,0.375-0.189h3.403c0.169,0,0.293,0.062,0.375,0.188
				c0.09,0.137,0.136,0.284,0.136,0.44c0,0.175-0.045,0.324-0.133,0.442c-0.083,0.112-0.207,0.166-0.378,0.166H86.267z"/>
			<path class="st0" d="M95.116,23.642c-0.129,0-0.244-0.049-0.352-0.15c-0.104-0.099-0.158-0.253-0.158-0.458v-4.381
				c0-0.51-0.129-0.894-0.384-1.142l-0.064-0.062l-0.447,0.485c-0.06,0.056-0.132,0.127-0.21,0.208
				c-0.061,0.064-0.119,0.095-0.177,0.095c-0.073,0-0.133-0.03-0.186-0.091c-0.073-0.081-0.138-0.153-0.197-0.214l-0.453-0.483
				l-0.063,0.062c-0.255,0.249-0.383,0.632-0.383,1.142v3.665h0.459c0.17,0,0.295,0.054,0.378,0.165
				c0.088,0.118,0.132,0.267,0.132,0.443c0,0.154-0.045,0.302-0.135,0.438c-0.083,0.127-0.206,0.189-0.375,0.189h-0.787
				c-0.232,0-0.401-0.07-0.514-0.213c-0.118-0.147-0.178-0.346-0.178-0.591v-4.265c0-0.376,0.049-0.706,0.144-0.98
				c0.098-0.276,0.219-0.515,0.364-0.708c0.142-0.191,0.3-0.335,0.467-0.427c0.166-0.09,0.326-0.136,0.476-0.136
				c0.124,0,0.233,0.034,0.333,0.104c0.109,0.078,0.223,0.18,0.338,0.304l0.179,0.205l0.19-0.205
				c0.113-0.125,0.224-0.227,0.332-0.304c0.1-0.07,0.208-0.104,0.333-0.104c0.154,0,0.316,0.046,0.478,0.136
				c0.165,0.092,0.322,0.235,0.465,0.427c0.144,0.194,0.266,0.433,0.362,0.708c0.096,0.275,0.144,0.605,0.144,0.98v4.55
				c0,0.205-0.053,0.359-0.158,0.458C95.361,23.592,95.245,23.642,95.116,23.642z"/>
			<path class="st0" d="M99.694,23.731c-0.13,0-0.244-0.048-0.353-0.148c-0.104-0.095-0.157-0.247-0.157-0.453v-6.289
				c0-0.206,0.054-0.361,0.158-0.459c0.108-0.101,0.222-0.151,0.352-0.151s0.244,0.049,0.352,0.151
				c0.105,0.098,0.158,0.253,0.158,0.459v6.289c0,0.206-0.053,0.358-0.157,0.453C99.938,23.683,99.823,23.731,99.694,23.731z"/>
			<path class="st0" d="M103.261,23.731c-0.571,0-1.051-0.191-1.426-0.568c-0.375-0.378-0.564-0.973-0.564-1.773v-1.517
				c0-0.261,0.045-0.47,0.136-0.619c0.095-0.156,0.204-0.287,0.322-0.39c0.128-0.112,0.247-0.221,0.35-0.325
				c0.119-0.119,0.185-0.265,0.197-0.436c0.011-0.092-0.002-0.189-0.039-0.282c-0.039-0.099-0.119-0.155-0.225-0.155
				c-0.021,0-0.041,0.003-0.065,0.006l-0.378,0.036c-0.026,0.002-0.05,0.004-0.073,0.004c-0.131,0-0.222-0.047-0.286-0.148
				c-0.085-0.131-0.129-0.294-0.129-0.483c0-0.168,0.044-0.322,0.129-0.458c0.08-0.128,0.201-0.195,0.373-0.205l0.807-0.018
				c0.249,0,0.459,0.109,0.643,0.335c0.195,0.239,0.299,0.545,0.308,0.91c0.009,0.377-0.034,0.665-0.132,0.855
				c-0.1,0.196-0.216,0.359-0.344,0.486c-0.139,0.136-0.266,0.269-0.379,0.397c-0.128,0.143-0.193,0.344-0.193,0.598v1.48
				c0,0.378,0.091,0.671,0.269,0.874c0.182,0.207,0.417,0.311,0.7,0.311c0.316,0,0.566-0.105,0.74-0.312
				c0.172-0.203,0.258-0.496,0.258-0.873V16.93c0-0.206,0.052-0.358,0.157-0.453c0.109-0.099,0.224-0.148,0.353-0.148
				c0.13,0,0.244,0.049,0.353,0.148c0.105,0.095,0.158,0.247,0.158,0.453v4.46c0,0.8-0.188,1.395-0.559,1.773
				C104.352,23.54,103.86,23.731,103.261,23.731z"/>
			<path class="st0" d="M103.912,15.425c-0.17,0-0.294-0.054-0.377-0.166c-0.089-0.119-0.133-0.267-0.133-0.442v-0.489h-0.319
				c-0.172,0-0.297-0.054-0.38-0.166c-0.086-0.117-0.131-0.266-0.131-0.443c0-0.156,0.043-0.3,0.134-0.439
				c0.084-0.127,0.207-0.189,0.376-0.189h0.845c0.208,0,0.36,0.057,0.462,0.172c0.104,0.117,0.157,0.283,0.157,0.491v0.435h1.339
				c0.17,0,0.293,0.062,0.376,0.189c0.09,0.137,0.135,0.284,0.135,0.439c0,0.175-0.044,0.324-0.132,0.442
				c-0.083,0.112-0.207,0.166-0.379,0.166H103.912z"/>
			<path class="st0" d="M108.768,23.731c-0.13,0-0.248-0.052-0.36-0.156c-0.109-0.101-0.165-0.263-0.165-0.481V18.83
				c0-0.344-0.089-0.643-0.264-0.889c-0.182-0.255-0.419-0.385-0.705-0.385c-0.143,0-0.255,0.016-0.342,0.052
				c-0.082,0.032-0.147,0.063-0.199,0.095c-0.111,0.07-0.212,0.106-0.301,0.106c-0.056,0-0.105-0.013-0.153-0.04
				c-0.136-0.076-0.229-0.186-0.286-0.334c-0.051-0.142-0.059-0.3-0.025-0.463c0.035-0.16,0.131-0.294,0.293-0.406
				c0.085-0.055,0.213-0.12,0.375-0.193c0.156-0.069,0.37-0.104,0.638-0.104c0.282,0,0.547,0.058,0.79,0.174
				c0.242,0.116,0.453,0.283,0.626,0.498c0.175,0.217,0.315,0.479,0.415,0.78c0.101,0.302,0.152,0.646,0.152,1.021v4.353
				c0,0.22-0.051,0.382-0.152,0.483C109.001,23.68,108.891,23.731,108.768,23.731z"/>
			<path class="st0" d="M111.169,23.552c-0.232,0-0.4-0.07-0.515-0.213c-0.118-0.147-0.177-0.345-0.177-0.591v-7.299
				c0-0.264,0.044-0.48,0.131-0.641c0.093-0.172,0.193-0.331,0.3-0.471c0.111-0.148,0.215-0.298,0.309-0.442
				c0.103-0.159,0.155-0.353,0.155-0.577c0-0.242-0.081-0.448-0.24-0.61c-0.159-0.162-0.362-0.245-0.604-0.245
				c-0.23,0-0.431,0.074-0.598,0.223c-0.17,0.151-0.251,0.329-0.24,0.529l0.014,0.252l0.144-0.207
				c0.095-0.137,0.196-0.208,0.3-0.212l0.021-0.001c0.104,0,0.197,0.036,0.284,0.109c0.095,0.081,0.16,0.192,0.198,0.338
				c0.035,0.144,0.013,0.295-0.07,0.461c-0.069,0.128-0.17,0.24-0.296,0.331c-0.124,0.086-0.277,0.131-0.457,0.131
				c-0.295,0-0.533-0.115-0.726-0.353c-0.195-0.238-0.294-0.525-0.294-0.854c0-0.243,0.045-0.471,0.135-0.679
				c0.09-0.209,0.215-0.394,0.37-0.549c0.157-0.154,0.341-0.276,0.549-0.366c0.208-0.087,0.436-0.131,0.681-0.131
				c0.499,0,0.924,0.157,1.26,0.467c0.334,0.308,0.503,0.743,0.503,1.293c0,0.24-0.04,0.439-0.117,0.588
				c-0.084,0.164-0.177,0.327-0.275,0.486c-0.099,0.165-0.194,0.343-0.282,0.531c-0.089,0.195-0.135,0.447-0.135,0.75v6.717h0.459
				c0.172,0,0.295,0.054,0.378,0.165c0.087,0.118,0.132,0.267,0.132,0.443c0,0.154-0.045,0.302-0.135,0.438
				c-0.083,0.127-0.205,0.189-0.375,0.189H111.169z"/>
			<path class="st0" d="M114.546,23.552c-0.288,0-0.445-0.155-0.497-0.489l-0.337-2.527h-0.201c-0.17,0-0.294-0.056-0.376-0.172
				c-0.091-0.126-0.134-0.268-0.134-0.436c0-0.151,0.044-0.29,0.135-0.424c0.083-0.125,0.206-0.186,0.375-0.186h0.598
				c0.287,0,0.445,0.153,0.496,0.48l0.339,2.537h0.134c0.19,0,0.373-0.072,0.544-0.212c0.164-0.135,0.304-0.318,0.419-0.545
				c0.111-0.222,0.201-0.487,0.266-0.788c0.064-0.299,0.096-0.613,0.096-0.933c0-0.32-0.029-0.626-0.089-0.909
				c-0.06-0.285-0.15-0.545-0.267-0.772c-0.119-0.23-0.271-0.418-0.45-0.559c-0.184-0.144-0.395-0.224-0.632-0.237
				c-0.039-0.003-0.078-0.005-0.117-0.005c-0.291,0-0.544,0.085-0.751,0.251c-0.232,0.186-0.385,0.393-0.458,0.616
				c-0.062,0.187-0.157,0.321-0.284,0.399c-0.081,0.05-0.161,0.074-0.24,0.074c-0.041,0-0.083-0.007-0.125-0.02
				c-0.121-0.04-0.219-0.124-0.299-0.253c-0.077-0.126-0.094-0.288-0.051-0.484c0.059-0.206,0.158-0.418,0.291-0.624
				c0.132-0.204,0.3-0.383,0.5-0.536c0.202-0.151,0.435-0.277,0.692-0.369c0.256-0.095,0.536-0.143,0.837-0.143
				c0.336,0,0.658,0.069,0.958,0.206c0.3,0.135,0.564,0.349,0.788,0.635c0.225,0.287,0.407,0.662,0.542,1.113
				c0.135,0.454,0.204,0.998,0.204,1.617c0,0.583-0.072,1.113-0.211,1.572c-0.141,0.46-0.326,0.851-0.552,1.165
				c-0.225,0.312-0.482,0.553-0.765,0.716c-0.278,0.161-0.565,0.243-0.849,0.243H114.546z"/>
			<path class="st0" d="M122.243,23.676c-0.13,0-0.244-0.049-0.352-0.15c-0.107-0.1-0.158-0.247-0.158-0.45v-4.264
				c0-0.441-0.112-0.801-0.333-1.071c-0.226-0.276-0.545-0.416-0.95-0.416c-0.404,0-0.724,0.14-0.949,0.416
				c-0.222,0.27-0.333,0.63-0.333,1.071v0.488h1.223c0.17,0,0.293,0.06,0.376,0.185c0.089,0.133,0.135,0.275,0.135,0.424
				c0,0.154-0.045,0.297-0.135,0.429c-0.083,0.121-0.207,0.18-0.376,0.18h-1.223v2.557c0,0.204-0.053,0.35-0.158,0.45
				c-0.108,0.101-0.224,0.15-0.352,0.15c-0.125,0-0.239-0.049-0.35-0.15c-0.108-0.101-0.162-0.248-0.162-0.45v-4.13
				c0-0.429,0.06-0.813,0.177-1.144c0.117-0.329,0.281-0.616,0.486-0.851c0.205-0.233,0.45-0.413,0.727-0.536
				c0.28-0.122,0.586-0.184,0.912-0.184c0.336,0,0.646,0.062,0.922,0.184c0.276,0.123,0.521,0.303,0.725,0.536
				c0.204,0.235,0.368,0.521,0.483,0.851c0.115,0.329,0.172,0.715,0.172,1.144v4.13c0,0.203-0.051,0.35-0.158,0.45
				C122.488,23.628,122.373,23.676,122.243,23.676z"/>
			<path class="st0" d="M122.094,26.614c-0.129,0-0.244-0.049-0.352-0.15c-0.105-0.099-0.159-0.259-0.159-0.477v-0.48h-0.24
				c-0.172,0-0.295-0.054-0.378-0.165c-0.087-0.118-0.132-0.268-0.132-0.444c0-0.16,0.045-0.309,0.134-0.442
				c0.083-0.125,0.207-0.185,0.376-0.185h0.751c0.17,0,0.293,0.058,0.377,0.177c0.09,0.13,0.133,0.276,0.133,0.45v1.089
				c0,0.218-0.054,0.377-0.161,0.476C122.333,26.564,122.218,26.614,122.094,26.614z"/>
			<path class="st0" d="M131.117,23.66c-0.182,0-0.339-0.052-0.484-0.158c-0.145-0.107-0.258-0.239-0.335-0.391l-0.059-0.122
				l-0.085,0.105c-0.129,0.158-0.295,0.293-0.493,0.403c-0.194,0.108-0.433,0.164-0.708,0.164c-0.244,0-0.48-0.047-0.703-0.136
				c-0.219-0.091-0.417-0.233-0.587-0.424c-0.17-0.192-0.308-0.437-0.409-0.729c-0.1-0.293-0.152-0.646-0.152-1.051v-2.301
				c0-0.519-0.13-0.934-0.384-1.234c-0.26-0.304-0.576-0.458-0.94-0.458c-0.304,0-0.564,0.079-0.773,0.236
				c-0.208,0.156-0.352,0.348-0.431,0.572c-0.017,0.082,0.005,0.163,0.064,0.254c0.048,0.074,0.101,0.149,0.161,0.226
				c0.058,0.073,0.115,0.147,0.171,0.222c0.055,0.073,0.066,0.12,0.066,0.148c0,0.013-0.006,0.053-0.061,0.134
				c-0.05,0.073-0.105,0.145-0.167,0.222c-0.066,0.079-0.127,0.176-0.182,0.289c-0.057,0.115-0.085,0.24-0.085,0.372v2.317h0.459
				c0.172,0,0.296,0.054,0.378,0.165c0.087,0.118,0.132,0.267,0.132,0.443c0,0.154-0.046,0.302-0.135,0.438
				c-0.083,0.127-0.206,0.189-0.375,0.189h-0.787c-0.232,0-0.4-0.07-0.515-0.213c-0.118-0.147-0.178-0.346-0.178-0.591V19.91
				c0-0.092,0.022-0.173,0.065-0.245c0.048-0.082,0.099-0.16,0.151-0.229c0.049-0.066,0.099-0.124,0.149-0.174
				c0.072-0.069,0.101-0.121,0.101-0.173c0-0.053-0.033-0.103-0.114-0.173c-0.054-0.048-0.111-0.103-0.17-0.167
				c-0.059-0.064-0.114-0.135-0.162-0.211c-0.04-0.064-0.057-0.125-0.049-0.188c0.098-0.657,0.365-1.181,0.794-1.556
				c0.428-0.373,0.932-0.562,1.495-0.562c0.337,0,0.654,0.06,0.939,0.176c0.285,0.117,0.533,0.294,0.736,0.526
				c0.204,0.233,0.369,0.535,0.49,0.893c0.121,0.361,0.181,0.797,0.181,1.297v2.159c0,0.421,0.109,0.745,0.324,0.962
				c0.216,0.219,0.471,0.328,0.761,0.328c0.135,0,0.274-0.034,0.408-0.102c0.131-0.066,0.256-0.156,0.372-0.27
				c0.116-0.114,0.214-0.257,0.287-0.428c0.076-0.171,0.114-0.354,0.114-0.544v-4.389c0-0.206,0.053-0.36,0.158-0.459
				c0.109-0.101,0.222-0.151,0.345-0.151c0.13,0,0.244,0.049,0.352,0.151c0.106,0.099,0.158,0.253,0.158,0.459v4.953l0.051,0.024
				c0.164,0.075,0.299,0.197,0.403,0.36c0.105,0.164,0.158,0.343,0.158,0.533c0,0.259-0.087,0.476-0.268,0.667
				C131.566,23.568,131.361,23.66,131.117,23.66z"/>
		</g>
		<g>
			<g>
				<g>
					<path class="st0" d="M100.876,33.416c0.125,0,0.233-0.108,0.233-0.241v-0.398c0-0.133-0.108-0.241-0.233-0.241h-1.817v-1.784
						h1.527c0.124,0,0.232-0.108,0.232-0.242v-0.39c0-0.132-0.108-0.24-0.232-0.24h-1.527v-1.468h1.777
						c0.123,0,0.23-0.108,0.23-0.241v-0.398c0-0.133-0.108-0.24-0.23-0.24H98.28c-0.132,0-0.24,0.107-0.24,0.232v5.417
						c0,0.124,0.108,0.232,0.24,0.232H100.876z M95.653,30.753L95.653,30.753h1.526c0.125,0,0.233-0.108,0.233-0.242v-0.39
						c0-0.132-0.108-0.24-0.233-0.24h-1.526v-1.468h1.776c0.124,0,0.23-0.108,0.23-0.241v-0.398c0-0.133-0.107-0.24-0.23-0.24
						h-2.556c-0.132,0-0.24,0.107-0.24,0.232v5.417c0,0.124,0.108,0.232,0.24,0.232h0.549c0.124,0,0.232-0.108,0.232-0.241V30.753z
						 M93.075,33.183c0,0.124,0.108,0.232,0.24,0.232h0.54c0.133,0,0.241-0.108,0.241-0.232v-5.417c0-0.124-0.108-0.232-0.241-0.232
						h-0.54c-0.132,0-0.24,0.107-0.24,0.232V33.183z M92.682,32.768c0-0.124-0.107-0.232-0.24-0.232h-1.544v-4.77
						c0-0.124-0.108-0.232-0.24-0.232h-0.54c-0.133,0-0.241,0.107-0.241,0.232v5.417c0,0.124,0.108,0.232,0.241,0.232h2.323
						c0.133,0,0.24-0.108,0.24-0.232V32.768z M88.262,32.768c0-0.124-0.108-0.232-0.242-0.232h-1.541v-4.77
						c0-0.124-0.108-0.232-0.241-0.232h-0.539c-0.133,0-0.24,0.107-0.24,0.232v5.417c0,0.124,0.107,0.232,0.24,0.232h2.322
						c0.134,0,0.242-0.108,0.242-0.232V32.768z M80.553,33.416c0.125,0,0.233-0.108,0.233-0.241v-0.398
						c0-0.133-0.108-0.241-0.233-0.241h-1.815v-1.784h1.526c0.125,0,0.233-0.108,0.233-0.242v-0.39c0-0.132-0.108-0.24-0.233-0.24
						h-1.526v-1.468h1.776c0.124,0,0.232-0.108,0.232-0.241v-0.398c0-0.133-0.108-0.24-0.232-0.24h-2.556
						c-0.133,0-0.24,0.107-0.24,0.232v5.417c0,0.124,0.107,0.232,0.24,0.232H80.553z M75.67,30.894c0.332,0,0.573,0.216,0.573,0.547
						v1.743c0,0.124,0.108,0.232,0.241,0.232h0.538c0.133,0,0.241-0.108,0.241-0.232v-1.577c0-0.555-0.158-1.087-0.821-1.152
						c0.539-0.058,0.713-0.481,0.713-1.012v-0.829c0-0.573-0.414-1.078-1.053-1.078h-2.025c-0.133,0-0.241,0.107-0.241,0.232v5.417
						c0,0.124,0.108,0.232,0.241,0.232h0.54c0.132,0,0.24-0.108,0.24-0.232v-2.29H75.67z M76.217,29.5
						c0,0.332-0.216,0.547-0.548,0.547h-0.813v-1.666h0.813c0.332,0,0.548,0.215,0.548,0.538V29.5z M71.904,33.416
						c0.124,0,0.232-0.108,0.232-0.241v-0.398c0-0.133-0.108-0.241-0.232-0.241h-1.817v-1.784h1.526
						c0.125,0,0.233-0.108,0.233-0.242v-0.39c0-0.132-0.108-0.24-0.233-0.24h-1.526v-1.468h1.774c0.125,0,0.233-0.108,0.233-0.241
						v-0.398c0-0.133-0.108-0.24-0.233-0.24h-2.555c-0.132,0-0.24,0.107-0.24,0.232v5.417c0,0.124,0.108,0.232,0.24,0.232H71.904z
						 M66.107,29.923L66.107,29.923v-2.157c0-0.124-0.107-0.232-0.241-0.232h-0.538c-0.133,0-0.241,0.107-0.241,0.232v5.417
						c0,0.124,0.108,0.232,0.241,0.232h0.538c0.134,0,0.241-0.108,0.241-0.232v-2.39h1.394v2.39c0,0.124,0.108,0.232,0.241,0.232
						h0.54c0.132,0,0.24-0.108,0.24-0.232v-5.417c0-0.124-0.108-0.232-0.24-0.232h-0.54c-0.133,0-0.241,0.107-0.241,0.232v2.157
						H66.107z M61.547,27.535c-0.125,0-0.233,0.107-0.233,0.24v0.389c0,0.132,0.108,0.241,0.233,0.241h0.945v4.778
						c0,0.124,0.108,0.232,0.241,0.232h0.539c0.133,0,0.241-0.108,0.241-0.232v-4.778h0.946c0.124,0,0.232-0.109,0.232-0.241v-0.389
						c0-0.133-0.108-0.24-0.232-0.24H61.547z"/>
					<path class="st0" d="M83.024,27.535c-0.511,0-0.724,0.318-0.778,0.551c-0.056,0.234-1.16,5.014-1.16,5.014
						c-0.017,0.067-0.025,0.133-0.025,0.141c0,0.091,0.074,0.175,0.182,0.175h0.615c0.099,0,0.158-0.083,0.182-0.182l0.249-1.046
						 M83.024,27.535c-0.511,0-0.724,0.318-0.778,0.551c-0.056,0.234-1.16,5.014-1.16,5.014c-0.017,0.067-0.025,0.133-0.025,0.141
						c0,0.091,0.074,0.175,0.182,0.175h0.615c0.099,0,0.158-0.083,0.182-0.182l0.249-1.046h1.593l0.248,1.046
						c0.025,0.099,0.083,0.182,0.183,0.182h0.614c0.108,0,0.183-0.083,0.183-0.175c0-0.008-0.008-0.074-0.025-0.141
						c0,0-1.104-4.78-1.16-5.014c-0.055-0.233-0.267-0.551-0.838-0.551c-0.571,0-0.784,0.318-0.838,0.551
						c-0.056,0.234-1.16,5.014-1.16,5.014c-0.017,0.067-0.025,0.133-0.025,0.141c0,0.091,0.074,0.175,0.182,0.175h0.615
						c0.099,0,0.158-0.083,0.182-0.182l0.249-1.046 M82.479,31.326h1.21 M82.479,31.326L82.479,31.326h1.21H82.479z M82.479,31.326
						l0.605-2.753l0.604,2.753"/>
				</g>
			</g>
			<g>
				<path class="st0" d="M129.828,33.424h0.547c0.133,0,0.241-0.108,0.241-0.233v-2.488l1.469-2.904
					c0.016-0.033,0.016-0.067,0.016-0.083c0-0.099-0.066-0.174-0.182-0.174h-0.532c-0.133,0-0.19,0.041-0.298,0.257l-0.988,1.908
					l-0.986-1.908c-0.108-0.216-0.166-0.257-0.299-0.257h-0.532c-0.116,0-0.182,0.075-0.182,0.174c0,0.016,0,0.05,0.016,0.083
					l1.469,2.904v2.488C129.589,33.315,129.696,33.424,129.828,33.424 M126.675,31.449L126.675,31.449l-1.618-3.674
					c-0.049-0.116-0.099-0.232-0.265-0.232h-0.68c-0.132,0-0.241,0.107-0.241,0.232v5.416c0,0.125,0.109,0.233,0.241,0.233h0.54
					c0.132,0,0.241-0.108,0.241-0.233v-3.674l1.616,3.674c0.05,0.117,0.1,0.233,0.266,0.233h0.681c0.133,0,0.24-0.108,0.24-0.233
					v-5.408c0-0.125-0.107-0.233-0.24-0.233h-0.54c-0.133,0-0.241,0.108-0.241,0.233V31.449z M117.063,31.275L117.063,31.275h1.353
					c0.554,0,0.936-0.398,0.936-0.962v-1.692c0-0.605-0.455-1.078-1.07-1.078h-1.999c-0.132,0-0.24,0.107-0.24,0.232v5.416
					c0,0.125,0.108,0.233,0.24,0.233h0.54c0.133,0,0.241-0.108,0.241-0.233V31.275z M118.332,29.89c0,0.423-0.183,0.539-0.515,0.539
					h-0.754v-2.04h0.754c0.332,0,0.515,0.125,0.515,0.548V29.89z M113.212,33.424c0.133,0,0.215-0.108,0.241-0.233l1.011-4.445
					v4.445c0,0.125,0.108,0.233,0.242,0.233h0.447c0.133,0,0.241-0.108,0.241-0.233v-5.416c0-0.125-0.108-0.232-0.241-0.232h-1.062
					c-0.132,0-0.215,0.107-0.24,0.232l-0.787,3.583l-0.788-3.583c-0.025-0.125-0.108-0.232-0.241-0.232h-1.062
					c-0.132,0-0.24,0.107-0.24,0.232v5.416c0,0.125,0.108,0.233,0.24,0.233h0.449c0.132,0,0.24-0.108,0.24-0.233v-4.445l1.012,4.445
					c0.025,0.125,0.108,0.233,0.241,0.233H113.212z M110.134,28.978c0-1.036-0.754-1.618-1.708-1.618
					c-0.954,0-1.709,0.582-1.709,1.618v2.994c0,1.037,0.754,1.617,1.709,1.617c0.954,0,1.708-0.58,1.708-1.617V28.978z
					 M109.123,31.972c0,0.432-0.275,0.738-0.698,0.738c-0.424,0-0.696-0.307-0.696-0.738v-2.994c0-0.432,0.273-0.738,0.696-0.738
					c0.423,0,0.698,0.306,0.698,0.738V31.972z M105.229,29.118c0,0.124,0.109,0.233,0.242,0.233h0.53
					c0.132,0,0.241-0.108,0.241-0.233v-0.141c0-1.036-0.755-1.618-1.71-1.618c-0.953,0-1.708,0.582-1.708,1.618v2.994
					c0,1.037,0.756,1.617,1.708,1.617c0.954,0,1.71-0.58,1.71-1.617v-0.141c0-0.125-0.109-0.232-0.241-0.232h-0.53
					c-0.133,0-0.242,0.108-0.242,0.232v0.141c0,0.422-0.282,0.738-0.696,0.738c-0.422,0-0.696-0.307-0.696-0.738v-2.994
					c0-0.424,0.282-0.738,0.696-0.738c0.424,0,0.696,0.306,0.696,0.738V29.118z"/>
				<path class="st0" d="M121.363,27.538c-0.51,0-0.722,0.318-0.778,0.552c-0.056,0.232-1.159,5.014-1.159,5.014
					c-0.017,0.066-0.025,0.132-0.025,0.14c0,0.091,0.075,0.175,0.182,0.175h0.614c0.1,0,0.157-0.084,0.183-0.184l0.247-1.044
					 M121.363,27.538c-0.51,0-0.722,0.318-0.778,0.552c-0.056,0.232-1.159,5.014-1.159,5.014c-0.017,0.066-0.025,0.132-0.025,0.14
					c0,0.091,0.075,0.175,0.182,0.175h0.614c0.1,0,0.157-0.084,0.183-0.184l0.247-1.044h1.591l0.249,1.044
					c0.025,0.1,0.083,0.184,0.183,0.184h0.613c0.108,0,0.183-0.084,0.183-0.175c0-0.008-0.009-0.074-0.026-0.14
					c0,0-1.103-4.782-1.159-5.014c-0.054-0.234-0.267-0.552-0.838-0.552c-0.571,0-0.784,0.318-0.839,0.552
					c-0.056,0.232-1.159,5.014-1.159,5.014c-0.017,0.066-0.025,0.132-0.025,0.14c0,0.091,0.075,0.175,0.182,0.175h0.614
					c0.1,0,0.157-0.084,0.183-0.184l0.247-1.044 M120.819,31.328h1.21 M120.819,31.328L120.819,31.328h1.21H120.819z
					 M120.819,31.328l0.605-2.754l0.604,2.754"/>
			</g>
		</g>
	</g>
</g>
</svg>
