<?xml version="1.0" encoding="utf-8"?>
<!-- Generator: Adobe Illustrator 18.0.0, SVG Export Plug-In . SVG Version: 6.00 Build 0)  -->
<!DOCTYPE svg PUBLIC "-//W3C//DTD SVG 1.1//EN" "http://www.w3.org/Graphics/SVG/1.1/DTD/svg11.dtd">
<svg version="1.1" id="Layer_1" xmlns="http://www.w3.org/2000/svg" xmlns:xlink="http://www.w3.org/1999/xlink" x="0px" y="0px"
	 width="326px" height="60px" viewBox="0 0 326 60" style="enable-background:new 0 0 326 60;" xml:space="preserve">
<style type="text/css">
	.st0{fill:#960C00;}
	.st1{fill:#D31245;}
	.st2{fill:#FFFFFF;}
</style>
<g>
	<g>
		<g>
			<path class="st0" d="M326,54.792c0,2.864-2.343,5.208-5.208,5.208H5.208C2.343,60,0,57.657,0,54.792V5.208
				C0,2.343,2.343,0,5.208,0h315.585C323.657,0,326,2.343,326,5.208V54.792z"/>
		</g>
		<g>
			<path class="st1" d="M326,50.014c0,2.742-2.244,4.986-4.986,4.986H4.986C2.244,55,0,52.756,0,50.014V4.986
				C0,2.244,2.244,0,4.986,0h316.028C323.756,0,326,2.244,326,4.986V50.014z"/>
		</g>
	</g>
	<g>
		<g>
			<path class="st2" d="M75.38,35.976c0,2.84-0.928,5.113-2.781,6.823c-1.768,1.594-3.97,2.39-6.606,2.39
				c-2.637,0-4.839-0.796-6.606-2.39c-1.884-1.71-2.825-3.983-2.825-6.823V22.938c0-2.839,0.941-5.113,2.825-6.823
				c1.767-1.593,3.969-2.39,6.606-2.39c2.636,0,4.838,0.797,6.606,2.39c1.854,1.71,2.781,3.984,2.781,6.823V35.976z M69.73,35.932
				V23.025c0-1.304-0.341-2.332-1.021-3.085s-1.586-1.13-2.716-1.13c-1.13,0-2.043,0.385-2.738,1.152
				c-0.695,0.768-1.043,1.79-1.043,3.064v12.907c0,1.275,0.348,2.289,1.043,3.042c0.695,0.754,1.608,1.13,2.738,1.13
				c1.13,0,2.035-0.376,2.716-1.13C69.389,38.222,69.73,37.208,69.73,35.932z"/>
			<path class="st2" d="M99.152,44.929H80.334v-5.085l11.561-13.429c1.071-1.245,1.608-2.491,1.608-3.737
				c0-1.159-0.326-2.093-0.978-2.803c-0.652-0.709-1.572-1.065-2.76-1.065c-2.521,0-3.781,1.319-3.781,3.955h-5.65
				c0-2.752,0.913-4.969,2.738-6.649c1.738-1.593,3.969-2.39,6.693-2.39c2.781,0,5.041,0.812,6.78,2.434
				c1.738,1.623,2.607,3.81,2.607,6.562c0,1.391-0.29,2.637-0.869,3.737c-0.406,0.841-1.217,1.956-2.434,3.347l-8.648,10.039h11.952
				V44.929z"/>
			<path class="st2" d="M117.318,35.15h-13.386v-5.258h13.386V35.15z"/>
			<path class="st2" d="M141.438,35.976c0,2.955-0.971,5.258-2.911,6.91c-1.797,1.536-4.101,2.303-6.91,2.303
				c-2.753,0-5.013-0.709-6.78-2.129c-2.028-1.623-3.057-3.955-3.086-6.997h5.65c0.028,1.333,0.463,2.347,1.304,3.042
				c0.753,0.667,1.724,0.999,2.912,0.999c1.245,0,2.252-0.376,3.021-1.13c0.767-0.753,1.151-1.81,1.151-3.172
				c0-1.304-0.384-2.34-1.151-3.107c-0.768-0.768-1.833-1.152-3.194-1.152h-0.826v-4.911h0.826c2.607,0,3.911-1.289,3.911-3.868
				c0-1.246-0.363-2.216-1.086-2.912c-0.725-0.696-1.623-1.043-2.694-1.043c-1.072,0-1.963,0.333-2.673,1
				c-0.71,0.667-1.094,1.579-1.152,2.738h-5.65c0.058-2.694,0.985-4.838,2.782-6.432c1.796-1.593,4.027-2.39,6.693-2.39
				c2.752,0,5.012,0.826,6.78,2.477c1.767,1.651,2.65,3.781,2.65,6.389c0,2.955-1.188,5.07-3.563,6.345
				C140.105,30.355,141.438,32.702,141.438,35.976z"/>
			<path class="st2" d="M164.689,35.976c0,2.84-0.927,5.113-2.781,6.823c-1.768,1.594-3.97,2.39-6.605,2.39
				c-2.637,0-4.839-0.796-6.606-2.39c-1.884-1.71-2.824-3.983-2.824-6.823V22.938c0-2.839,0.94-5.113,2.824-6.823
				c1.768-1.593,3.97-2.39,6.606-2.39c2.636,0,4.838,0.797,6.605,2.39c1.854,1.71,2.781,3.984,2.781,6.823V35.976z M159.039,35.932
				V23.025c0-1.304-0.341-2.332-1.021-3.085s-1.586-1.13-2.716-1.13s-2.043,0.385-2.738,1.152c-0.695,0.768-1.043,1.79-1.043,3.064
				v12.907c0,1.275,0.348,2.289,1.043,3.042c0.695,0.754,1.608,1.13,2.738,1.13s2.035-0.376,2.716-1.13
				C158.699,38.222,159.039,37.208,159.039,35.932z"/>
			<path class="st2" d="M188.549,34.499c0,1.883-0.174,3.39-0.521,4.52c-0.405,1.362-1.145,2.579-2.216,3.65
				c-1.681,1.681-3.955,2.521-6.823,2.521c-2.955,0-5.259-0.825-6.91-2.477c-1.449-1.449-2.289-3.593-2.521-6.433h5.649
				c0.318,2.55,1.579,3.824,3.781,3.824c1.13,0,2.027-0.332,2.694-0.999c0.811-0.811,1.217-2.347,1.217-4.606
				c0-3.709-1.268-5.563-3.803-5.563c-1.953,0-3.206,0.841-3.759,2.52h-5.129v-17.47h17.645v5.084h-12.516v6.649
				c1.101-1.043,2.65-1.564,4.649-1.564c2.463,0,4.39,0.695,5.78,2.086C187.622,28.096,188.549,30.847,188.549,34.499z"/>
			<path class="st2" d="M206.629,35.15h-13.386v-5.258h13.386V35.15z"/>
			<path class="st2" d="M230.661,34.499c0,1.883-0.174,3.39-0.521,4.52c-0.405,1.362-1.145,2.579-2.216,3.65
				c-1.681,1.681-3.955,2.521-6.823,2.521c-2.955,0-5.259-0.825-6.91-2.477c-1.449-1.449-2.289-3.593-2.521-6.433h5.649
				c0.318,2.55,1.579,3.824,3.781,3.824c1.13,0,2.027-0.332,2.694-0.999c0.811-0.811,1.217-2.347,1.217-4.606
				c0-3.709-1.268-5.563-3.803-5.563c-1.953,0-3.206,0.841-3.759,2.52h-5.129v-17.47h17.645v5.084H217.45v6.649
				c1.101-1.043,2.65-1.564,4.649-1.564c2.463,0,4.39,0.695,5.78,2.086C229.734,28.096,230.661,30.847,230.661,34.499z"/>
			<path class="st2" d="M254.174,44.929h-18.817v-5.085l11.56-13.429c1.072-1.245,1.608-2.491,1.608-3.737
				c0-1.159-0.326-2.093-0.978-2.803c-0.652-0.709-1.572-1.065-2.76-1.065c-2.521,0-3.781,1.319-3.781,3.955h-5.649
				c0-2.752,0.912-4.969,2.737-6.649c1.738-1.593,3.97-2.39,6.693-2.39c2.781,0,5.041,0.812,6.779,2.434
				c1.738,1.623,2.607,3.81,2.607,6.562c0,1.391-0.289,2.637-0.869,3.737c-0.405,0.841-1.217,1.956-2.434,3.347l-8.648,10.039
				h11.951V44.929z"/>
			<path class="st2" d="M277.772,44.929h-18.817v-5.085l11.56-13.429c1.072-1.245,1.608-2.491,1.608-3.737
				c0-1.159-0.326-2.093-0.978-2.803c-0.652-0.709-1.572-1.065-2.76-1.065c-2.521,0-3.781,1.319-3.781,3.955h-5.649
				c0-2.752,0.912-4.969,2.737-6.649c1.738-1.593,3.97-2.39,6.693-2.39c2.781,0,5.041,0.812,6.779,2.434
				c1.738,1.623,2.607,3.81,2.607,6.562c0,1.391-0.289,2.637-0.869,3.737c-0.405,0.841-1.217,1.956-2.434,3.347l-8.648,10.039
				h11.951V44.929z"/>
			<path class="st2" d="M301.458,34.499c0,1.883-0.174,3.39-0.521,4.52c-0.405,1.362-1.145,2.579-2.216,3.65
				c-1.681,1.681-3.955,2.521-6.823,2.521c-2.955,0-5.259-0.825-6.91-2.477c-1.449-1.449-2.289-3.593-2.521-6.433h5.649
				c0.318,2.55,1.579,3.824,3.781,3.824c1.13,0,2.027-0.332,2.694-0.999c0.811-0.811,1.217-2.347,1.217-4.606
				c0-3.709-1.268-5.563-3.803-5.563c-1.953,0-3.206,0.841-3.759,2.52h-5.129v-17.47h17.645v5.084h-12.516v6.649
				c1.101-1.043,2.65-1.564,4.649-1.564c2.463,0,4.39,0.695,5.78,2.086C300.531,28.096,301.458,30.847,301.458,34.499z"/>
		</g>
		<g>
			<path id="path2954_2_" class="st2" d="M31.327,22.707l2.547-1.077c0.725-0.309,1.056-1.127,0.754-1.85l-3.219-7.592
				c-0.303-0.72-1.127-1.054-1.851-0.745l-2.547,1.079L31.327,22.707z"/>
			<path id="path2956_2_" class="st2" d="M37.74,37.837l2.547-1.079c0.72-0.308,1.547,0.03,1.85,0.742l3.216,7.598
				c0.304,0.712-0.028,1.54-0.753,1.848l-2.545,1.081L37.74,37.837z"/>
			<path id="path2958_2_" class="st2" d="M31.488,31.569c-2.97-6.927-1.918-8.106-1.177-8.425l0.218-0.091L26.21,12.867
				l-0.266,0.112c-1.321,0.566-6.766,5.694-0.255,21.053c6.506,15.36,13.972,15.01,15.296,14.447l0.268-0.113l-4.32-10.188
				l-0.212,0.091C35.976,38.587,34.448,38.497,31.488,31.569"/>
		</g>
	</g>
</g>
</svg>
