<?xml version="1.0" encoding="utf-8"?>
<!-- Generator: Adobe Illustrator 18.0.0, SVG Export Plug-In . SVG Version: 6.00 Build 0)  -->
<!DOCTYPE svg PUBLIC "-//W3C//DTD SVG 1.1//EN" "http://www.w3.org/Graphics/SVG/1.1/DTD/svg11.dtd">
<svg version="1.1" id="Layer_1" xmlns="http://www.w3.org/2000/svg" xmlns:xlink="http://www.w3.org/1999/xlink" x="0px" y="0px"
	 width="123.388px" height="120px" viewBox="0 0 123.388 120" style="enable-background:new 0 0 123.388 120;" xml:space="preserve"
	>
<style type="text/css">
	.st0{fill:#96A3A8;}
	.st1{fill:#CED5DA;}
	.st2{fill:#FFFFFF;}
</style>
<g>
	<g>
		<path class="st0" d="M42.138,40.751c0.558-14.685,8.246-27.454,19.556-34.62C55.555,2.24,48.35,0,40.646,0
			C18.198,0,0,19.01,0,42.46c0,16.365,8.869,30.559,21.855,37.647c-0.049-0.85-0.08-1.704-0.08-2.567
			C21.774,61.809,29.97,48.087,42.138,40.751z"/>
		<path class="st0" d="M82.742,0c-7.704,0-14.908,2.24-21.048,6.13c11.089,7.026,18.698,19.439,19.517,33.763
			c12.985,7.088,21.855,21.282,21.855,37.647c0,0.573-0.02,1.142-0.042,1.709c12.168-7.336,20.364-21.059,20.364-36.79
			C123.388,19.01,105.19,0,82.742,0z"/>
		<path class="st1" d="M42.138,40.751c5.971-3.6,12.893-5.67,20.282-5.67c6.782,0,13.17,1.745,18.791,4.812
			C80.392,25.569,72.783,13.157,61.694,6.13C50.384,13.297,42.696,26.066,42.138,40.751z"/>
		<path class="st0" d="M61.694,78.789c-6.14,3.89-13.344,6.13-21.048,6.13c-6.782,0-13.17-1.745-18.791-4.813
			C23.127,102.361,40.798,120,62.419,120c21.899,0,39.744-18.093,40.604-40.75c-5.971,3.6-12.893,5.67-20.282,5.67
			C75.037,84.92,67.833,82.68,61.694,78.789z"/>
		<path class="st1" d="M61.694,78.789C49.947,71.346,42.097,57.861,42.097,42.46c0-0.573,0.02-1.142,0.041-1.709
			C29.97,48.087,21.774,61.809,21.774,77.54c0,0.863,0.032,1.717,0.08,2.567c5.621,3.068,12.009,4.813,18.791,4.813
			C48.35,84.92,55.555,82.68,61.694,78.789z"/>
		<path class="st1" d="M81.211,39.893c0.049,0.85,0.08,1.705,0.08,2.567c0,15.401-7.85,28.886-19.597,36.329
			c6.139,3.89,13.343,6.13,21.048,6.13c7.389,0,14.312-2.07,20.282-5.67c0.021-0.567,0.042-1.136,0.042-1.709
			C103.065,61.175,94.196,46.981,81.211,39.893z"/>
		<path class="st2" d="M42.138,40.751c-0.021,0.568-0.041,1.136-0.041,1.709c0,15.401,7.85,28.886,19.597,36.329
			c11.747-7.443,19.597-20.928,19.597-36.329c0-0.862-0.032-1.717-0.08-2.567c-5.621-3.068-12.009-4.812-18.791-4.812
			C55.031,35.081,48.108,37.151,42.138,40.751z"/>
	</g>
	<path class="st0" d="M53.984,49.655v5.236h-6.691V43.255h6.618v1.673c0,0,1.964-1.601,3.855-1.454
		c1.89,0.145,3.417,1.309,4.145,1.673c0.727,0.363,1.745,1.017,3.49,0.726c1.745-0.29,2.982-3.346,2.982-3.346h8.145
		c0,0,0.219,6.254-0.581,8.945c-0.8,2.692-1.963,4.219-5.091,6.618c-3.128,2.4-5.673,4.655-5.746,13.237h-7.272
		c0,0-0.072-6.182,3.054-10.618c3.127-4.437,7.709-6.618,8.364-8.946c0.654-2.327-0.363-3.855-1.236-3.636
		c-0.873,0.219-1.746,2.546-5.09,2.691c-3.346,0.145-4.875-2.75-6.618-2.837C54.857,47.909,53.984,49.655,53.984,49.655z"/>
</g>
</svg>
