<?xml version="1.0" encoding="utf-8"?>
<!-- Generator: Adobe Illustrator 18.0.0, SVG Export Plug-In . SVG Version: 6.00 Build 0)  -->
<!DOCTYPE svg PUBLIC "-//W3C//DTD SVG 1.1//EN" "http://www.w3.org/Graphics/SVG/1.1/DTD/svg11.dtd">
<svg version="1.1" id="Layer_1" xmlns="http://www.w3.org/2000/svg" xmlns:xlink="http://www.w3.org/1999/xlink" x="0px" y="0px"
	 width="129.426px" height="125px" viewBox="0 0 129.426 125" style="enable-background:new 0 0 129.426 125;" xml:space="preserve"
	>
<style type="text/css">
	.st0{fill:#FFFFFF;stroke:#96A3A8;stroke-width:5;stroke-miterlimit:10;}
	.st1{fill:#96A3A8;}
	.st2{fill:#FFFFFF;}
</style>
<g>
	<path class="st0" d="M126.614,50.765c-0.661-4.463-1.818-24.298-14.215-35.041C100.588,5.487,87.121,2.755,66.291,2.519L66.283,2.5
		c-0.529,0-1.049,0.003-1.57,0.006c-0.52-0.003-1.041-0.006-1.57-0.006l-0.008,0.019c-20.83,0.235-34.298,2.967-46.108,13.204
		C4.63,26.467,3.473,46.302,2.812,50.765C2.151,55.228,2.647,68.451,3.308,76.55c0.661,8.099,2.975,18.016,9.752,28.264
		c6.261,9.468,18.874,16.538,45.268,17.559l0.021,0.128H64.3c0.139,0,0.275-0.001,0.413-0.002c0.138,0,0.274,0.002,0.413,0.002h5.95
		l0.022-0.128c26.393-1.02,39.006-8.09,45.267-17.559c6.777-10.248,9.091-20.165,9.752-28.264
		C126.779,68.451,127.275,55.228,126.614,50.765z"/>
	<path class="st1" d="M71.077,7.294l7.273,10.909l3.967,87.108c0,0-6.611,11.24-7.934,12.727c0,0,21.157,1.157,33.884-12.396
		c12.728-13.553,15.041-31.901,14.711-46.777c-0.331-14.876-2.81-28.099-14.049-39.008C97.688,8.947,83.342,7.429,71.077,7.294z"/>
	<path class="st1" d="M58.811,7.159c0,0-10.498,14.834-15.062,28.299c-4.564,13.465-5.021,23.05-2.967,38.34
		c2.054,15.291,13.008,34.005,20.767,44.73c0,0-18.941,1.369-31.95-6.162C16.592,104.835,6.778,88.403,6.778,62.844
		C6.778,37.283,18.189,6.703,58.811,7.159z"/>
	<path class="st1" d="M64.517,7.387c0,0-15.29,18.029-17.8,47.925c-2.511,29.897,10.954,48.153,21.452,62.759
		c0,0,10.27-13.236,14.606-24.647c4.336-11.411-0.228-52.946-5.249-65.27C72.504,15.831,64.517,7.387,64.517,7.387z"/>
	<path class="st2" d="M65.152,108.023c-17.093,0-26.697-7.89-31.744-14.508c-5.447-7.143-6.808-14.38-6.863-14.685l-1.106-6.099
		h6.198h16.079h3.719l1.187,3.524c1.422,4.224,3.71,7.402,6.799,9.442c3.229,2.133,6.636,2.58,8.924,2.579
		c2.293,0,4.547-0.447,6.347-1.259c2.995-1.35,3.818-3.608,4.042-4.833c0.325-1.776-0.148-3.553-1.233-4.638
		c-2.072-2.073-9.371-3.347-13.843-3.47l-5.032-0.138l-0.007-5.035V56.038v-5.714l5.687,0.564c1.268,0.126,2.475,0.19,3.588,0.19
		c2.941,0,6.828-0.45,8.643-2.592c1.612-1.904,1.325-4.878,1.127-6.069c-0.256-1.539-2.534-5.932-9.399-5.932
		c-1.657,0-3.477,0.256-5.412,0.762c-4.175,1.092-6.947,3.211-8.476,6.48c-1.137,2.433-1.169,4.698-1.168,5.003l0.397,5.524
		l-5.568-0.116H31.476h-6.36l1.294-6.228c2.109-10.156,7.747-18.454,16.304-23.999c6.799-4.405,15.447-6.932,23.728-6.932
		c1.102,0,2.198,0.045,3.257,0.134c14.957,1.261,25.571,7.092,30.695,16.864c1.215,2.317,1.898,4.784,2.549,7.775
		c2.065,9.501-1.46,16.113-4.781,19.987c-0.265,0.308-0.533,0.605-0.801,0.889c4.69,3.838,7.214,8.58,7.307,13.738
		c0.14,7.889-1.976,14.507-6.288,19.67c-6.304,7.548-16.973,11.574-31.712,11.966C66.154,108.016,65.658,108.023,65.152,108.023
		L65.152,108.023z"/>
	<path class="st1" d="M63.796,56.038v12.864c0,0,12.703,0.321,17.365,4.984c4.663,4.663,3.859,14.15-4.341,17.848
		c-8.2,3.698-23.637,2.412-29.104-13.828H31.637c0,0,4.663,25.727,34.892,24.923c30.229-0.804,33.123-17.366,32.962-26.37
		c-0.16-9.005-11.255-13.346-11.255-13.346s12.771-5.892,9.648-20.26c-0.523-2.404-1.088-4.589-2.075-6.471
		c-4.913-9.369-15.37-13.168-26.547-14.111c-13.346-1.125-33.445,5.789-37.787,26.692h16.562c0,0-0.643-13.024,13.507-16.723
		c14.15-3.698,20.421,4.502,21.224,9.326C83.573,46.39,83.252,57.968,63.796,56.038z"/>
</g>
</svg>
