<?xml version="1.0" encoding="utf-8"?>
<!-- Generator: Adobe Illustrator 18.0.0, SVG Export Plug-In . SVG Version: 6.00 Build 0)  -->
<!DOCTYPE svg PUBLIC "-//W3C//DTD SVG 1.1//EN" "http://www.w3.org/Graphics/SVG/1.1/DTD/svg11.dtd">
<svg version="1.1" id="Layer_1" xmlns="http://www.w3.org/2000/svg" xmlns:xlink="http://www.w3.org/1999/xlink" x="0px" y="0px"
	 width="163.049px" height="120px" viewBox="0 0 163.049 120" style="enable-background:new 0 0 163.049 120;" xml:space="preserve"
	>
<style type="text/css">
	.st0{fill:#96A3A8;}
</style>
<g>
	<path class="st0" d="M135.7,15.858c0,0-13.476-8.82-23.886-11.531c-10.41-2.711,0,0,0,0l-0.246,8.68c0,0,6.31,0.622,24.185,10.337
		C142.011,26.745,135.7,15.858,135.7,15.858"/>
	<g>
		<path class="st0" d="M90.112,0c2.653,0.341,5.313,0.635,7.958,1.032c4.674,0.702,9.235,1.889,13.745,3.295
			c1.032,0.322,1.48,0.829,1.432,1.941c-0.077,1.815-0.004,3.635-0.028,5.452c-0.018,1.395-0.307,1.611-1.651,1.287
			c-1.992-0.48-3.979-0.977-6.033-1.275c0.923,0.572,1.845,1.144,2.767,1.716c-5.464-1.511-10.455-0.801-14.897,2.693
			c-3.196,2.514-5.149,5.859-5.58,9.924c-1.132,10.67,7.225,16.682,14.145,17.125c8.511,0.545,17.854-7.024,15.99-18.451
			c3.863,5.176,6.314,10.961,7.322,17.357c1.005,6.379,0.659,12.677-1.24,18.867c-5.165,16.836-20.331,28.865-38.448,29.397
			c-18.277,0.536-34.771-11.029-40.547-27.977c-3.371-9.892-3.306-19.724,0.546-29.448c3.843-9.701,10.472-16.953,19.726-21.833
			C52.089,13.52,39.753,18.164,28.476,25.5C17.233,32.814,7.757,41.974,0,52.932c1.926-4.373,4.295-8.474,6.991-12.382
			c3.373-4.89,7.113-9.483,11.394-13.611c13.616-13.13,29.613-21.757,48.23-25.39c3.312-0.646,6.646-1.154,10.023-1.336
			c0.338-0.018,0.67-0.139,1.006-0.212C81.8,0,85.956,0,90.112,0z M69.031,10.475c0.495,0.909,0.825,1.903,1.472,2.606
			c0.884,0.961,0.415,1.237-0.412,1.773c-5.575,3.608-10.077,8.257-13.363,14.05c-0.406,0.715-0.803,1.415-0.452,2.316
			c1.254,3.222,3.049,6.101,5.324,8.696c0.643,0.733,0.979,0.694,1.196-0.299c0.528-2.419,1.359-4.743,2.447-6.962
			c0.48-0.979,0.875-1.955,1.11-3.023c1.474-6.712,5.04-12.062,10.59-16.094c2.497-1.815,5.271-3.084,8.204-4.061
			C79.734,9.26,74.376,9.602,69.031,10.475z M53.524,36.594c-0.216,0.534-0.329,0.758-0.4,0.995c-1.4,4.665-1.724,9.444-1.33,14.264
			c0.123,1.504,0.019,3.149,1.227,4.403c1.923,1.997,3.844,3.99,6.135,5.583c2.335,1.624,4.777,3.033,7.512,4.031
			c0-0.245,0.031-0.346-0.005-0.408C63.478,59.946,61.865,54,61.785,47.634c-0.006-0.449-0.1-0.862-0.441-1.18
			C58.325,43.632,55.769,40.432,53.524,36.594z M79.357,68.309c5.244,0.12,10.016-0.968,14.608-2.935
			c1.031-0.442,2.057-0.896,3.1-1.308c0.203-0.081,0.574,0.157,0.608-0.24c0.04-0.467-0.368-0.412-0.647-0.399
			c-1.166,0.054-2.334,0.236-3.494,0.189c-6.562-0.265-12.536-2.261-17.476-6.655c-2.567-2.284-5.199-4.369-8.32-5.808
			c-0.255-0.118-0.504-0.444-0.804-0.165c-0.209,0.194-0.08,0.49-0.045,0.742c0.787,5.648,2.907,10.745,6.319,15.312
			c0.471,0.631,1.054,0.916,1.848,1.028C76.561,68.283,78.069,68.308,79.357,68.309z M56.164,66.335
			c2.641,5.615,7.823,10.977,13.668,15.019c3.102,2.146,6.056,2.579,9.429,1.046c1.47-0.669,3.03-1.145,4.617-2.146
			c-0.779-0.363-1.313-0.619-1.853-0.864c-2.736-1.241-5.334-2.754-7.517-4.801c-1.793-1.682-3.699-2.715-6.162-3.145
			C64.045,70.695,60.138,68.791,56.164,66.335z M78.712,72.333c0.119,0.629,0.553,0.802,0.882,1.04
			c2.178,1.574,4.484,2.916,6.963,3.98c0.847,0.364,1.424,0.278,2.091-0.3c3.141-2.719,5.74-5.858,7.577-9.601
			c0.099-0.201,0.345-0.429-0.019-0.78C90.863,69.944,85.066,71.997,78.712,72.333z"/>
		<path class="st0" d="M98.164,120c-1.738-0.319-3.487-0.591-5.212-0.97c-1.909-0.419-3.741-1.082-5.382-2.176
			c-3.691-2.463-3.719-6.678-0.043-9.168c2.23-1.51,4.775-2.229,7.394-2.645c6.288-0.998,12.568-1.009,18.809,0.38
			c2.038,0.454,3.983,1.152,5.701,2.392c3.28,2.367,3.319,6.479,0.032,8.833c-2.874,2.058-6.243,2.659-9.644,3.129
			c-0.424,0.059-0.844,0.149-1.265,0.225C105.09,120,101.627,120,98.164,120z M103.394,117.366c0.734,0,1.47,0.035,2.202-0.007
			c1.778-0.103,3.518-0.428,5.161-1.134c2.184-0.939,3.166-2.448,2.954-4.506c-0.208-2.02-1.669-2.944-3.332-3.584
			c-3.224-1.242-6.588-1.272-9.965-0.94c-2.077,0.204-4.106,0.64-5.843,1.904c-2.098,1.527-2.229,4.323-0.296,6.052
			c0.72,0.644,1.566,1.066,2.476,1.372C98.908,117.248,101.132,117.471,103.394,117.366z"/>
		<path class="st0" d="M62.839,120c-2.261-0.333-4.535-0.593-6.779-1.016c-2.728-0.514-5.399-1.249-7.715-2.893
			c-2.993-2.124-3.078-5.277-0.172-7.545c1.739-1.357,3.786-2.088,5.898-2.594c6.878-1.649,13.862-1.834,20.882-1.399
			c1.552,0.096,3.104,0.22,4.65,0.386c1.226,0.132,1.924,1.756,1.225,2.744c-0.336,0.476-0.786,0.241-1.188,0.185
			c-3.866-0.539-7.755-0.686-11.647-0.53c-3.542,0.143-7.083,0.401-10.475,1.583c-0.82,0.286-1.619,0.608-2.293,1.181
			c-1.593,1.356-1.534,2.993,0.177,4.199c1.376,0.969,2.973,1.401,4.588,1.709c6.388,1.216,12.809,1.116,19.243,0.414
			c0.67-0.073,1.61-0.642,1.76,0.725c0.192,1.757-0.062,2.214-1.451,2.394c-1.153,0.149-2.304,0.304-3.457,0.456
			C71.67,120,67.255,120,62.839,120z"/>
		<path class="st0" d="M34.249,108.467c-2.003,2.082-4.153,4.045-5.97,6.278c-1.999,2.457-4.573,1.939-7.114,1.878
			c-0.508-0.012-0.805-0.475-1.143-0.801c-2.148-2.072-4.287-4.152-6.439-6.22c-0.268-0.257-0.466-0.633-0.931-0.667
			c-0.347,0.412-0.184,0.907-0.187,1.356c-0.019,2.682-0.033,5.364,0,8.046c0.012,1.003-0.403,1.412-1.39,1.388
			c-1.34-0.033-2.682-0.028-4.023-0.002c-0.91,0.018-1.351-0.337-1.346-1.293c0.019-4.153,0.017-8.305,0.002-12.458
			c-0.003-0.926,0.384-1.328,1.324-1.316c2.249,0.029,4.499,0.022,6.748,0.002c0.704-0.006,1.224,0.279,1.72,0.75
			c2.32,2.204,4.688,4.358,6.978,6.592c0.72,0.703,1.174,0.88,1.982,0.083c2.246-2.217,4.6-4.323,6.874-6.512
			c0.632-0.609,1.278-0.941,2.175-0.923c2.162,0.044,4.326,0.039,6.488,0.005c0.946-0.015,1.31,0.367,1.305,1.307
			c-0.025,4.153-0.025,8.306-0.003,12.458c0.005,0.957-0.428,1.318-1.337,1.303c-1.297-0.021-2.597-0.044-3.893,0.011
			c-1.109,0.047-1.55-0.389-1.534-1.514c0.043-3.154,0.015-6.308,0.015-9.462C34.451,108.659,34.35,108.563,34.249,108.467z"/>
		<path class="st0" d="M143.167,104.661c5.972,0,11.944-0.003,17.916,0.001c1.745,0.001,2.271,0.733,1.806,2.438
			c-0.229,0.841-0.911,0.68-1.48,0.682c-4.197,0.017-8.395,0.007-12.593,0.012c-1.773,0.002-1.776,0.008-1.779,1.828
			c-0.004,2.856-0.038,5.713,0.016,8.568c0.021,1.122-0.393,1.569-1.507,1.539c-1.687-0.045-3.376-0.039-5.063-0.002
			c-0.995,0.022-1.377-0.368-1.362-1.383c0.045-3.028-0.027-6.059,0.036-9.087c0.024-1.152-0.393-1.496-1.509-1.484
			c-4.284,0.047-8.568,0.023-12.852,0.011c-0.498-0.001-1.162,0.151-1.376-0.448c-0.262-0.731-0.297-1.563,0.032-2.28
			c0.255-0.556,0.91-0.389,1.41-0.39C130.964,104.658,137.065,104.661,143.167,104.661z"/>
		<path class="st0" d="M134.532,19.079c0.001-0.865,0.008-1.729-0.001-2.594c-0.009-0.965,0.346-1.163,1.169-0.627
			c2.103,1.37,4.122,2.85,6.097,4.397c8.215,6.436,15.007,14.143,20.573,22.951c0.161,0.255,0.375,0.508,0.435,0.789
			c0.125,0.581,0.297,1.346-0.271,1.651c-0.489,0.263-0.698-0.492-0.991-0.825c-7.49-8.488-16.03-15.719-25.79-21.477
			c-0.847-0.5-1.292-1.071-1.231-2.06C134.567,20.552,134.531,19.814,134.532,19.079z"/>
	</g>
</g>
</svg>
