<?xml version="1.0" encoding="utf-8"?>
<!-- Generator: Adobe Illustrator 18.0.0, SVG Export Plug-In . SVG Version: 6.00 Build 0)  -->
<!DOCTYPE svg PUBLIC "-//W3C//DTD SVG 1.1//EN" "http://www.w3.org/Graphics/SVG/1.1/DTD/svg11.dtd">
<svg version="1.1" id="Layer_1" xmlns="http://www.w3.org/2000/svg" xmlns:xlink="http://www.w3.org/1999/xlink" x="0px" y="0px"
	 width="149.04px" height="120px" viewBox="0 0 149.04 120" style="enable-background:new 0 0 149.04 120;" xml:space="preserve">
<style type="text/css">
	.st0{fill:#96A3A8;}
	.st1{fill:#FFFFFF;}
	.st2{fill:#969EA8;}
	.st3{fill:#A5AEB9;}
</style>
<g>
	<path class="st0" d="M75.692,120H75.67h-2.298h-0.023l-0.023,0c-0.606-0.009-15.046-0.244-33.428-2.959
		c-18.095-2.672-20.942-3.34-24.394-4.817c-3.693-1.584-6.648-4.072-9.063-11.075c-0.91-2.642-5.219-15.71-6.228-29.201L0,68.775
		v-2.298V53.523v-2.298l0.213-3.172c1.009-13.492,5.318-26.56,6.228-29.201c2.415-7.003,5.369-9.492,9.062-11.075
		c3.45-1.479,6.297-2.145,24.395-4.819C58.28,0.244,72.72,0.009,73.326,0.001L73.349,0h0.023h2.298h0.022l0.023,0.001
		c0.606,0.009,15.046,0.243,33.428,2.958c18.098,2.673,20.945,3.34,24.395,4.819c3.693,1.583,6.648,4.072,9.062,11.075
		c0.91,2.641,5.219,15.711,6.227,29.201l0.213,3.172v2.298v12.953v2.298l-0.213,3.172c-1.008,13.49-5.317,26.559-6.227,29.2
		c-2.415,7.002-5.369,9.492-9.062,11.075c-3.453,1.48-6.3,2.146-24.395,4.819c-18.382,2.715-32.822,2.95-33.428,2.959L75.692,120
		L75.692,120z"/>
	<path class="st1" d="M75.679,118.176h-0.01h-2.298c-0.167-0.002-14.945-0.241-33.208-2.939c-18.295-2.702-20.838-3.36-23.942-4.691
		c-3.341-1.432-5.853-3.603-8.057-9.993c-0.935-2.712-5.51-16.591-6.24-30.429l-0.102-1.349v-2.299V53.523v-2.298l0.102-1.349
		c0.73-13.838,5.305-27.718,6.24-30.43c2.204-6.391,4.717-8.562,8.057-9.993c3.104-1.331,5.646-1.988,23.941-4.691
		c18.263-2.697,33.041-2.936,33.188-2.939l2.318-0.001c0.167,0.003,14.945,0.242,33.207,2.939
		c18.296,2.703,20.838,3.361,23.943,4.691c3.34,1.431,5.853,3.602,8.056,9.993c0.935,2.712,5.511,16.587,6.241,30.43l0.1,1.349
		v2.298v12.953v2.299l-0.1,1.349c-0.73,13.842-5.306,27.718-6.241,30.429c-2.203,6.391-4.716,8.561-8.056,9.993
		c-3.105,1.331-5.647,1.989-23.943,4.691c-18.262,2.698-33.04,2.937-33.187,2.939L75.679,118.176L75.679,118.176z"/>
	<path class="st0" d="M40.361,6.097C21.976,8.813,19.677,9.44,16.752,10.694c-2.925,1.253-5.223,3.133-7.312,9.193
		c-1.968,5.708-5.79,18.832-6.226,31.339c0,0-0.042,0.458-0.042,2.298v12.953c0,1.84,0.042,2.298,0.042,2.298
		C3.65,81.281,7.472,94.406,9.44,100.114c2.089,6.059,4.387,7.939,7.312,9.193c2.925,1.253,5.223,1.88,23.609,4.596
		c5.437,0.803,10.544,1.387,15.043,1.811V4.286C50.905,4.71,45.798,5.294,40.361,6.097z"/>
	<path class="st2" d="M145.826,51.225c-0.436-12.507-4.258-25.631-6.226-31.339c-2.089-6.059-4.387-7.94-7.312-9.193
		c-2.925-1.254-5.223-1.881-23.609-4.597c-5.353-0.791-10.386-1.368-14.833-1.791v111.388c4.447-0.422,9.48-1,14.833-1.791
		c18.386-2.716,20.684-3.343,23.609-4.596c2.925-1.254,5.223-3.134,7.312-9.193c1.968-5.708,5.789-18.833,6.226-31.339
		c0,0,0.042-0.459,0.042-2.298V53.523C145.868,51.684,145.826,51.225,145.826,51.225z"/>
	<path class="st3" d="M75.67,3.172h-2.298c0,0-7.255,0.104-17.968,1.114v111.428c10.713,1.01,17.968,1.114,17.968,1.114h2.298
		c0,0,7.349-0.105,18.176-1.134V4.306C83.019,3.277,75.67,3.172,75.67,3.172z"/>
	<path class="st1" d="M19.64,26.315c0.562-0.21,1.334-0.562,1.825-0.562s0.561,0.351,0.561,1.404v24.21h6.246V30.947
		c0,0,0.913-1.053,4.562-3.158c3.649-2.105,5.403-3.509,6.877-3.509c1.473,0,2.315,1.473,2.245,2.737v24.421h6.597V22.596
		c0,0-0.067-3.068-3.509-3.228c-3.017-0.14-4.912,1.263-6.245,2.035c-1.333,0.772-10.527,5.825-10.527,5.825v-6.737
		c0,0,0.281-1.053-1.122-1.053c-1.403,0-1.403,0.561-2.105,1.123c-0.702,0.562-6.246,4.842-6.246,4.842s-0.491,0.492-0.07,0.913
		C19.149,26.736,19.64,26.315,19.64,26.315z"/>
	<path class="st1" d="M61.254,26.315c0.562-0.21,1.333-0.562,1.825-0.562s0.562,0.351,0.562,1.404v24.21h6.246V30.947
		c0,0,0.912-1.053,4.561-3.158c3.649-2.105,5.403-3.509,6.877-3.509c1.474,0,2.316,1.473,2.246,2.737v24.421h6.597V22.596
		c0,0-0.067-3.068-3.509-3.228c-3.018-0.14-4.912,1.263-6.245,2.035c-1.334,0.772-10.526,5.825-10.526,5.825v-6.737
		c0,0,0.28-1.053-1.123-1.053c-1.403,0-1.403,0.561-2.105,1.123c-0.702,0.562-6.246,4.842-6.246,4.842s-0.491,0.492-0.07,0.913
		C60.763,26.736,61.254,26.315,61.254,26.315z"/>
	<path class="st1" d="M127.57,19.508c-0.562,0.351-4.351,3.719-4.351,3.719v19.93c0,1.334-1.544,4.07-6.386,4.07
		c-4.842,0-6.035-3.578-6.035-3.578v-4.702l-0.009,0.001v-8.282l0.079-3.719V20.21c0,0,0.28-1.053-1.123-1.053
		c-1.403,0-1.403,0.561-2.105,1.123c-0.702,0.561-6.246,4.842-6.246,4.842s-0.491,0.491-0.07,0.912c0.421,0.421,0.912,0,0.912,0
		c0.562-0.21,1.334-0.561,1.825-0.561c0.491,0,0.562,0.351,0.912,1.403v13.544l0.001,0.001v4.07
		c0.912,7.789,12.701,7.509,12.701,7.509c10.386,0,11.509-7.017,11.509-7.017v-23.93C129.185,19.228,128.132,19.158,127.57,19.508z"
		/>
	<path class="st1" d="M105.726,76.77H19.521V58.001h110.122v7.308h-86.48c0,0-1.017-0.062-1.017,0.709v4.594
		c0,0,0.035,1.052,1.157,1.052h86.23v15.184c0,0-0.587,6.285-9.893,9.774c-9.305,3.489-22.628,6.027-45.362,6.027
		c-22.734,0-37.114-1.797-45.361-5.181c-8.247-3.384-9.411-7.401-9.411-8.67c0-1.269,0-5.181,0-5.181h22.628v6.133
		c0,0,1.586,7.401,31.51,7.613c0,0,28.972,0.74,33.202-7.719V78.118C106.847,78.118,106.719,76.797,105.726,76.77z"/>
</g>
</svg>
