<?xml version="1.0" encoding="utf-8"?>
<!-- Generator: Adobe Illustrator 18.0.0, SVG Export Plug-In . SVG Version: 6.00 Build 0)  -->
<!DOCTYPE svg PUBLIC "-//W3C//DTD SVG 1.1//EN" "http://www.w3.org/Graphics/SVG/1.1/DTD/svg11.dtd">
<svg version="1.1" id="Layer_1" xmlns="http://www.w3.org/2000/svg" xmlns:xlink="http://www.w3.org/1999/xlink" x="0px" y="0px"
	 width="110px" height="110px" viewBox="0 0 110 110" style="enable-background:new 0 0 110 110;" xml:space="preserve">
<style type="text/css">
	.st0{fill:#FFFFFF;}
	.st1{fill:#8B9298;}
	.st2{fill:#96A3A8;}
</style>
<g>
	<g>
		<path class="st0" d="M55,107.5C26.051,107.5,2.5,83.949,2.5,55C2.5,26.051,26.051,2.5,55,2.5s52.5,23.551,52.5,52.5
			C107.5,83.949,83.949,107.5,55,107.5z"/>
		<path class="st1" d="M55,5c27.614,0,50,22.386,50,50c0,27.614-22.386,50-50,50C27.386,105,5,82.614,5,55C5,27.386,27.386,5,55,5
			 M55,0C24.673,0,0,24.673,0,55s24.673,55,55,55c30.327,0,55-24.673,55-55S85.327,0,55,0L55,0z"/>
	</g>
	<circle class="st2" cx="55.25" cy="55" r="44.362"/>
	<g>
		<path class="st0" d="M63.897,38.096l-7.493,0.586c-0.67-2.958-1.619-5.107-2.847-6.447c-2.037-2.149-4.549-3.223-7.535-3.223
			c-2.4,0-4.507,0.67-6.321,2.009c-2.373,1.731-4.243,4.256-5.609,7.577c-1.368,3.322-2.08,8.052-2.135,14.192
			c1.814-2.763,4.033-4.814,6.656-6.154c2.623-1.339,5.372-2.009,8.247-2.009c5.023,0,9.3,1.849,12.831,5.547
			c3.53,3.698,5.296,8.478,5.296,14.338c0,3.852-0.831,7.431-2.491,10.738c-1.661,3.307-3.942,5.84-6.845,7.598
			c-2.903,1.758-6.196,2.638-9.879,2.638c-6.28,0-11.401-2.31-15.364-6.929c-3.963-4.618-5.944-12.23-5.944-22.836
			c0-11.861,2.19-20.485,6.572-25.871c3.823-4.689,8.972-7.033,15.447-7.033c4.828,0,8.784,1.354,11.868,4.061
			C61.434,29.584,63.282,33.324,63.897,38.096z M33.128,64.554c0,2.596,0.551,5.08,1.653,7.451c1.103,2.373,2.644,4.18,4.626,5.422
			c1.981,1.242,4.061,1.862,6.238,1.862c3.181,0,5.916-1.283,8.205-3.852c2.288-2.566,3.433-6.056,3.433-10.465
			c0-4.242-1.13-7.584-3.391-10.026c-2.26-2.442-5.107-3.663-8.54-3.663c-3.405,0-6.293,1.221-8.666,3.663
			C34.313,57.389,33.128,60.591,33.128,64.554z"/>
	</g>
	<g>
		<path class="st0" d="M78.001,80.528v-4.141h-8.21V49.054h8.21v-4.311h2.974v4.311c2.837,0.152,4.904,0.909,6.204,2.27
			c1.3,1.361,1.949,2.934,1.949,4.717c0,2.608-1.28,4.534-3.842,5.776c3.425,1.053,5.137,3.268,5.137,6.645
			c0,5.095-3.149,7.736-9.448,7.926v4.141H78.001z M78.001,60.537v-8.281h-4.596v8.281H78.001z M78.001,73.186v-9.448h-4.596v9.448
			H78.001z M80.975,52.312v8.225c3.036-0.199,4.554-1.56,4.554-4.084c0-1.318-0.352-2.307-1.053-2.966
			C83.774,52.828,82.607,52.436,80.975,52.312z M80.975,63.795v9.392c3.805-0.123,5.706-1.698,5.706-4.725
			C86.681,65.475,84.779,63.919,80.975,63.795z"/>
	</g>
</g>
</svg>
