<?xml version="1.0" encoding="utf-8"?>
<!-- Generator: Adobe Illustrator 18.0.0, SVG Export Plug-In . SVG Version: 6.00 Build 0)  -->
<!DOCTYPE svg PUBLIC "-//W3C//DTD SVG 1.1//EN" "http://www.w3.org/Graphics/SVG/1.1/DTD/svg11.dtd">
<svg version="1.1" id="Layer_1" xmlns="http://www.w3.org/2000/svg" xmlns:xlink="http://www.w3.org/1999/xlink" x="0px" y="0px"
	 width="160.827px" height="91px" viewBox="0 0 160.827 91" style="enable-background:new 0 0 160.827 91;" xml:space="preserve">
<style type="text/css">
	.st0{fill:#96A3A8;}
	.st1{fill:#FFFFFF;}
</style>
<g>
	<path class="st0" d="M160.827,3c0-1.65-1.35-3-3-3H47.214c-1.65,0-3.954,0.955-5.12,2.122L0.875,43.378
		c-1.166,1.167-1.166,3.077,0,4.245l41.219,41.255C43.26,90.045,45.564,91,47.214,91h110.613c1.65,0,3-1.35,3-3V3z"/>
	<g>
		<path class="st0" d="M51.23,84.451c-1.245,0-3.181-0.802-4.06-1.682L11.036,46.603c-0.585-0.586-0.585-1.539,0-2.125L47.17,8.312
			c0.879-0.88,2.814-1.682,4.06-1.682h101.208c0.827,0,1.5,0.673,1.5,1.5v74.821c0,0.827-0.673,1.5-1.5,1.5H51.23z"/>
		<path class="st1" d="M152.438,8.13v74.821H51.229c-0.854,0-2.395-0.639-2.998-1.243l-36.134-36.17L48.231,9.373
			c0.603-0.604,2.144-1.243,2.998-1.243H152.438 M152.438,5.13H51.229c-1.65,0-3.954,0.955-5.12,2.122L9.975,43.418
			c-1.166,1.167-1.166,3.077,0,4.245l36.134,36.166c1.166,1.167,3.47,2.122,5.12,2.122h101.209c1.65,0,3-1.35,3-3V8.13
			C155.438,6.48,154.088,5.13,152.438,5.13L152.438,5.13z"/>
	</g>
	<g>
		<path class="st1" d="M69.597,72.04h-9.441V34.929c-1.521,1.45-3.515,2.901-5.981,4.35c-2.468,1.451-4.684,2.538-6.649,3.263V33.31
			c3.532-1.66,6.619-3.671,9.261-6.033c2.642-2.362,4.513-4.654,5.613-6.876h7.197V72.04z"/>
		<path class="st1" d="M76.799,45.211c0-6.081,0.625-10.974,1.877-14.682c1.25-3.706,3.111-6.565,5.579-8.577
			c2.467-2.011,5.571-3.017,9.314-3.017c2.759,0,5.179,0.556,7.261,1.666c2.081,1.111,3.799,2.713,5.157,4.806
			c1.356,2.093,2.42,4.642,3.191,7.648c0.773,3.005,1.159,7.057,1.159,12.156c0,6.034-0.62,10.904-1.86,14.611
			c-1.24,3.708-3.093,6.572-5.56,8.596c-2.468,2.023-5.583,3.034-9.348,3.034c-4.96,0-8.854-1.778-11.683-5.333
			C78.494,61.839,76.799,54.87,76.799,45.211z M85.296,45.972c0,6.794,0.796,11.316,2.385,13.565
			c1.591,2.249,3.553,3.373,5.887,3.373c2.333,0,4.295-1.129,5.886-3.387c1.59-2.259,2.385-6.776,2.385-13.551
			c0-6.813-0.796-11.34-2.385-13.579c-1.591-2.24-3.572-3.36-5.944-3.36c-2.333,0-4.196,0.988-5.589,2.964
			C86.172,34.52,85.296,39.178,85.296,45.972z"/>
	</g>
	<circle class="st1" cx="32.039" cy="44.442" r="4.793"/>
	<g>
		<path class="st1" d="M113.762,39.217c0-1.153,0.252-2.249,0.755-3.289s1.271-1.839,2.306-2.399
			c1.033-0.559,2.257-0.839,3.67-0.839c2.079,0,3.718,0.593,4.916,1.78c1.197,1.187,1.796,2.769,1.796,4.747
			c0,1.989-0.599,3.577-1.796,4.763c-1.198,1.187-2.837,1.78-4.916,1.78c-1.413,0-2.637-0.28-3.67-0.839
			c-1.034-0.56-1.803-1.359-2.306-2.399C114.014,41.483,113.762,40.381,113.762,39.217z M118.525,39.251
			c0,1.401,0.226,2.418,0.678,3.051c0.294,0.418,0.724,0.627,1.289,0.627c0.564,0,0.988-0.209,1.271-0.627
			c0.451-0.633,0.678-1.65,0.678-3.051c0-1.39-0.227-2.407-0.678-3.051c-0.283-0.407-0.707-0.61-1.271-0.61
			c-0.565,0-0.995,0.204-1.289,0.61C118.751,36.833,118.525,37.85,118.525,39.251z M134.86,32.691h3.583l-14.356,26.546h-3.544
			L134.86,32.691z M131.68,52.659c0-1.164,0.248-2.263,0.746-3.297c0.497-1.034,1.266-1.833,2.306-2.398
			c1.039-0.565,2.26-0.848,3.661-0.848c2.091,0,3.734,0.596,4.933,1.789s1.797,2.777,1.797,4.755s-0.599,3.562-1.797,4.755
			c-1.198,1.192-2.842,1.788-4.933,1.788c-1.401,0-2.622-0.282-3.661-0.848c-1.04-0.565-1.809-1.364-2.306-2.398
			C131.928,54.922,131.68,53.823,131.68,52.659z M136.443,52.693c0,1.401,0.226,2.418,0.678,3.051
			c0.282,0.407,0.706,0.61,1.271,0.61c0.564,0,0.994-0.204,1.288-0.61c0.452-0.633,0.678-1.65,0.678-3.051
			c0-1.401-0.226-2.424-0.678-3.068c-0.294-0.407-0.724-0.61-1.288-0.61c-0.565,0-0.989,0.209-1.271,0.627
			C136.669,50.275,136.443,51.292,136.443,52.693z"/>
	</g>
</g>
</svg>
