<?xml version="1.0" encoding="utf-8"?>
<!-- Generator: Adobe Illustrator 18.0.0, SVG Export Plug-In . SVG Version: 6.00 Build 0)  -->
<!DOCTYPE svg PUBLIC "-//W3C//DTD SVG 1.1//EN" "http://www.w3.org/Graphics/SVG/1.1/DTD/svg11.dtd">
<svg version="1.1" id="Layer_1" xmlns="http://www.w3.org/2000/svg" xmlns:xlink="http://www.w3.org/1999/xlink" x="0px" y="0px"
	 width="162.434px" height="92.98px" viewBox="0 0 162.434 92.98" style="enable-background:new 0 0 162.434 92.98;"
	 xml:space="preserve">
<style type="text/css">
	.st0{fill:#FFFFFF;}
	.st1{fill:#96A3A8;}
	.st2{fill:#96A3A8;stroke:#FFFFFF;stroke-width:3.9607;stroke-miterlimit:10;}
</style>
<g>
	<g>
		<rect x="3.483" y="14.514" class="st0" width="144.437" height="74.984"/>
		<path class="st1" d="M151.402,11.032h-6.965H6.966H0v6.966v68.018v6.966h6.966h137.471h6.965v-6.966V17.997V11.032L151.402,11.032
			z"/>
	</g>
	<g>
		<rect x="12.534" y="5.463" class="st1" width="144.437" height="74.984"/>
		<path class="st2" d="M153.488,8.946v68.018H16.017V8.946H153.488 M160.454,1.98h-6.966H16.017H9.051v6.966v68.018v6.966h6.966
			h137.471h6.966v-6.966V8.946V1.98L160.454,1.98z"/>
	</g>
	<g>
		<path class="st0" d="M83.082,70.455v-6.364H70.464v-42.01h12.618v-6.626h4.57v6.626c4.36,0.233,7.538,1.397,9.535,3.488
			c1.998,2.092,2.996,4.509,2.996,7.25c0,4.009-1.968,6.969-5.905,8.878c5.264,1.618,7.895,5.022,7.895,10.212
			c0,7.83-4.84,11.89-14.521,12.181v6.364H83.082z M83.082,39.729V27.001h-7.063v12.728H83.082z M83.082,59.171V44.649h-7.063
			v14.521H83.082z M87.652,27.089v12.641c4.666-0.306,6.999-2.398,6.999-6.277c0-2.026-0.54-3.546-1.618-4.559
			C91.954,27.88,90.16,27.278,87.652,27.089z M87.652,44.736v14.434c5.848-0.189,8.77-2.61,8.77-7.261
			C96.422,47.318,93.5,44.927,87.652,44.736z"/>
	</g>
</g>
</svg>
